<?xml version="1.0" encoding="iso-8859-1"?>
<!-- Generator: Adobe Illustrator 19.0.0, SVG Export Plug-In . SVG Version: 6.00 Build 0)  -->
<svg xmlns="http://www.w3.org/2000/svg" xmlns:xlink="http://www.w3.org/1999/xlink" version="1.1" id="Capa_1" x="0px" y="0px" viewBox="0 0 501 501" style="enable-background:new 0 0 501 501;" xml:space="preserve" width="512" height="512">
<g>
	<path style="fill:#8AE8F5;" d="M68.562,410.064c-4.88,0.603-9.744-1.4-12.733-5.304C24.262,363.515,5.5,311.951,5.5,256   c0-135.31,109.69-245,245-245s245,109.69,245,245c0,55.951-18.762,107.515-50.329,148.76c-2.988,3.905-7.853,5.907-12.733,5.304   c-57.492-7.1-118.595-10.923-181.938-10.923S126.055,402.965,68.562,410.064z"/>
	<path style="fill:#895348;" d="M445.5,390v14.318c-13.804,18.121-30.075,34.261-48.312,47.918   c-40.892,30.623-252.487,30.622-293.38-0.002c-18.236-13.657-34.505-29.796-48.309-47.915V390c0-22.091,17.909-40,40-40h310   C427.591,350,445.5,367.909,445.5,390z"/>
	<path style="fill:#9D6256;" d="M245.5,0h10c33.137,0,60,26.863,60,60v60h-29V50c0-11.046-8.954-20-20-20h-32   c-11.046,0-20,8.954-20,20v70h-29V60C185.5,26.863,212.363,0,245.5,0z"/>
	<path style="fill:#7D4B41;" d="M204.5,60v60h-19V60c0-33.137,26.863-60,60-60h10c1.516,0,3.013,0.075,4.5,0.186   C228.967,2.489,204.5,28.378,204.5,60z"/>
	<path style="fill:#F05D22;" d="M396.612,125.943c9.421,50.131,14.677,105.938,14.677,164.756c0,57.57-5.046,112.242-14.094,161.546   C356.3,482.864,305.518,501,250.5,501s-105.8-18.136-146.695-48.755c-9.048-49.303-14.094-103.975-14.094-161.546   c0-58.817,5.255-114.625,14.677-164.756c6.156-32.758,34.669-45.943,68-45.943h156.224C361.944,80,390.456,93.185,396.612,125.943z   "/>
	<path style="fill:#FC703B;" d="M272.106,479.395c-1.375,0-2.748-0.011-4.118-0.034c-82.431-1.359-149.493-66.746-154.738-149.021   c-1.272-19.958-1.933-40.412-1.933-61.246c0-58.817,5.255-114.625,14.677-164.756c1.07-5.695,2.83-10.785,5.16-15.331   C142.741,82.801,157.051,80,172.388,80h156.224c33.332,0,61.844,13.185,68,45.943c9.421,50.131,14.677,105.938,14.677,164.756   c0,54.477-4.524,106.35-12.676,153.544C361.686,466.553,318.396,479.395,272.106,479.395z"/>
	<path style="fill:#FCA20C;" d="M386.5,280h-272c-22.091,0-40-17.909-40-40v-70c0-55.228,44.772-100,100-100h152   c55.228,0,100,44.772,100,100v70C426.5,262.091,408.591,280,386.5,280z"/>
	<path style="fill:#FFB23C;" d="M386.5,280h-252c-22.091,0-40-17.909-40-40v-70c0-55.228,44.772-100,100-100h132   c55.228,0,100,44.772,100,100v70C426.5,262.091,408.591,280,386.5,280z"/>
	<path style="fill:#9D6256;" d="M170.5,390L170.5,390c-11.046,0-20-8.954-20-20V190c0-5.523,4.477-10,10-10h20   c5.523,0,10,4.477,10,10v180C190.5,381.046,181.546,390,170.5,390z M350.5,370V190c0-5.523-4.477-10-10-10h-20   c-5.523,0-10,4.477-10,10v180c0,11.046,8.954,20,20,20h0C341.546,390,350.5,381.046,350.5,370z"/>
	<path style="fill:#7D4B41;" d="M178,355c0,4.142-3.358,7.5-7.5,7.5s-7.5-3.358-7.5-7.5s3.358-7.5,7.5-7.5S178,350.858,178,355z    M170.5,320c-4.142,0-7.5,3.358-7.5,7.5s3.358,7.5,7.5,7.5s7.5-3.358,7.5-7.5S174.642,320,170.5,320z M330.5,270   c4.142,0,7.5-3.358,7.5-7.5s-3.358-7.5-7.5-7.5s-7.5,3.358-7.5,7.5S326.358,270,330.5,270z M330.5,320c-4.142,0-7.5,3.358-7.5,7.5   s3.358,7.5,7.5,7.5s7.5-3.358,7.5-7.5S334.642,320,330.5,320z M330.5,347.5c-4.142,0-7.5,3.358-7.5,7.5s3.358,7.5,7.5,7.5   s7.5-3.358,7.5-7.5S334.642,347.5,330.5,347.5z M170.5,255c-4.142,0-7.5,3.358-7.5,7.5s3.358,7.5,7.5,7.5s7.5-3.358,7.5-7.5   S174.642,255,170.5,255z"/>
	<path style="fill:#FFC981;" d="M190.5,310h-40c-5.523,0-10-4.477-10-10v-10c0-5.523,4.477-10,10-10h40c5.523,0,10,4.477,10,10v10   C200.5,305.523,196.023,310,190.5,310z M360.5,300v-10c0-5.523-4.477-10-10-10h-40c-5.523,0-10,4.477-10,10v10   c0,5.523,4.477,10,10,10h40C356.023,310,360.5,305.523,360.5,300z"/>
	<path style="fill:#FFE2BD;" d="M190.5,310h-20c-5.523,0-10-4.477-10-10v-10c0-5.523,4.477-10,10-10h20c5.523,0,10,4.477,10,10v10   C200.5,305.523,196.023,310,190.5,310z M360.5,300v-10c0-5.523-4.477-10-10-10h-20c-5.523,0-10,4.477-10,10v10   c0,5.523,4.477,10,10,10h20C356.023,310,360.5,305.523,360.5,300z"/>
	<path style="fill:#E48F00;" d="M283.5,150h-66c-8.284,0-15-6.716-15-15v-10c0-8.284,6.716-15,15-15h66c8.284,0,15,6.716,15,15v10   C298.5,143.284,291.784,150,283.5,150z"/>
	<path style="fill:#FCA20C;" d="M283.5,150h-44c-8.284,0-15-6.716-15-15v-10c0-8.284,6.716-15,15-15h44c8.284,0,15,6.716,15,15v10   C298.5,143.284,291.784,150,283.5,150z"/>
</g>















</svg>
