<?xml version="1.0" encoding="iso-8859-1"?>
<!-- Generator: Adobe Illustrator 19.0.0, SVG Export Plug-In . SVG Version: 6.00 Build 0)  -->
<svg xmlns="http://www.w3.org/2000/svg" xmlns:xlink="http://www.w3.org/1999/xlink" version="1.1" id="Capa_1" x="0px" y="0px" viewBox="0 0 501 501" style="enable-background:new 0 0 501 501;" xml:space="preserve" width="512" height="512">
<g>
	<path style="fill:#368A9C;" d="M5.5,256c0-135.159,109.445-244.755,244.547-245C385.013,10.756,495.38,120.812,495.5,255.778   c0.093,105.25-66.188,195.02-159.289,229.794c-6.828,2.55-14.173,3.367-21.416,2.549c-20.89-2.36-42.372-3.592-64.294-3.592   c-21.928,0-43.414,1.232-64.309,3.594c-7.187,0.812-14.481,0.03-21.259-2.497C71.821,450.915,5.5,361.209,5.5,256z"/>
	<path style="fill:#9DC6D4;" d="M250.5,300h120l-32.131,184.753C311.091,495.238,281.47,501,250.5,501s-60.591-5.762-87.869-16.247   L130.5,300H250.5z"/>
	<path style="fill:#84B8C8;" d="M324.5,340h-10.282l2.268-13.04c0.946-5.441-2.698-10.62-8.139-11.566   c-5.44-0.945-10.62,2.697-11.566,8.139L293.916,340h-39.699l2.268-13.04c0.946-5.441-2.698-10.62-8.139-11.566   c-5.44-0.945-10.62,2.697-11.566,8.139L233.916,340h-64.46l-6.957-40h-32l32.131,184.753c10.905,4.191,22.189,7.614,33.779,10.229   L190.326,460h22.721l-6.447,37.072c6.521,1.18,13.133,2.097,19.823,2.75L233.348,460h39.699l-7.043,40.498   c6.975-0.436,13.873-1.155,20.677-2.162L293.348,460H304.5c5.523,0,10-4.477,10-10s-4.477-10-10-10h-7.674l5.217-30H314.5   c5.523,0,10-4.477,10-10s-4.477-10-10-10h-8.978l5.217-30H324.5c5.523,0,10-4.477,10-10S330.023,340,324.5,340z M216.525,440   h-29.677l-5.218-30h40.112L216.525,440z M225.221,390h-47.068l-5.217-30h57.503L225.221,390z M276.525,440h-39.699l5.217-30h39.699   L276.525,440z M285.221,390h-39.699l5.217-30h39.699L285.221,390z"/>
	<path style="fill:#FFD69E;" d="M420.5,280h-340c-11.046,0-20-8.954-20-20V20c0-11.046,8.954-20,20-20h340c11.046,0,20,8.954,20,20   v240C440.5,271.046,431.546,280,420.5,280z"/>
	<path style="fill:#FFE2BD;" d="M420.5,280h-316c-11.046,0-20-8.954-20-20V20c0-11.046,8.954-20,20-20h316c11.046,0,20,8.954,20,20   v240C440.5,271.046,431.546,280,420.5,280z"/>
	<path style="fill:#FFBD61;" d="M386.5,30h-272c-11.028,0-20,8.972-20,20v180c0,11.028,8.972,20,20,20h272c11.028,0,20-8.972,20-20   V50C406.5,38.972,397.528,30,386.5,30z M386.5,230h-272V50h272l0.013,179.999C386.513,229.999,386.509,230,386.5,230z"/>
	<path style="fill:#FC703B;" d="M344.5,150c0,82.843-67.157,150-150,150s-150-67.157-150-150S111.657,0,194.5,0   S344.5,67.157,344.5,150z"/>
	<path style="fill:#F05D22;" d="M343.543,166.936c0.625-5.56,0.957-11.209,0.957-16.936c0-0.597-0.016-1.189-0.023-1.784   c-35.985,6.309-69.137,23.299-95.662,49.392c-14.623-12.921-28.536-26.882-41.635-41.817c0.48-0.409,0.969-0.808,1.448-1.219   c37.667-32.353,69.023-68.889,93.568-108.968c-4.359-4.496-8.997-8.719-13.887-12.643c-24.329,40.317-55.84,76.957-93.055,108.696   c-14.333-17.663-27.577-36.54-39.635-56.462c19.579-24.794,32.2-53.992,36.858-85.169c-6.33,0.084-12.565,0.559-18.682,1.404   c-4.351,24.49-14.171,47.111-28.143,66.559c-8.754-15.796-16.793-32.181-24.026-49.116c-3.504,1.951-6.911,4.053-10.234,6.27   c0.009-0.014,0.017-0.028,0.027-0.042c-0.323,0.215-0.638,0.442-0.959,0.66c-0.536,0.363-1.069,0.731-1.6,1.102   c-0.73,0.509-1.456,1.023-2.177,1.544c-0.248,0.179-0.501,0.35-0.748,0.53c0.002,0.005,0.004,0.009,0.006,0.014   C68.698,56.244,44.5,100.288,44.5,150c0,82.843,67.157,150,150,150c40.582,0,77.393-16.123,104.394-42.305   c0.001,0,0.001,0.001,0.001,0.001c0.021-0.019,0.04-0.039,0.06-0.059c1.056-1.025,2.095-2.066,3.12-3.121   c0.049-0.051,0.101-0.1,0.15-0.15c3.248-3.353,6.34-6.856,9.267-10.5c0.015-0.019,0.031-0.037,0.047-0.056   c-0.001,0-0.001-0.001-0.001-0.001c2.772-3.455,5.398-7.032,7.861-10.728c-4.142,2.76-8.437,5.307-12.854,7.653   c-15.123-9.424-29.711-19.865-43.706-31.239C284.776,188.351,312.58,173.256,343.543,166.936z M142.825,99.741   c11.624,18.763,24.361,36.654,38.149,53.631c-20.346,16.058-42.231,30.703-65.431,43.77   c-12.782-17.324-21.926-37.495-26.304-59.388c19.107-8.866,36.707-21.103,52.037-36.432   C141.798,100.799,142.31,100.269,142.825,99.741z M107.211,31.836c7.795,17.783,16.427,34.989,25.891,51.564   c-13.186,14.336-28.901,26.302-46.415,35.224c-0.237-3.451-0.368-6.931-0.368-10.442C86.318,80.295,93.953,54.204,107.211,31.836z    M127.622,211.548c22.996-13.113,44.797-27.802,65.283-44.018c13.735,15.704,28.204,30.291,43.368,43.713   c-11.269,13.559-20.384,28.523-27.201,44.463C177.286,249.873,149.004,234.026,127.622,211.548z M286.261,249.651   c-15.623,5.518-32.429,8.531-49.943,8.531c-2.754,0-5.49-0.08-8.208-0.226c5.903-12.567,13.355-24.269,22.114-34.853   C261.867,232.608,273.884,241.466,286.261,249.651z"/>
	<path style="fill:#6AA8BB;" d="M376.5,310h-252c-11.046,0-20-8.954-20-20v0c0-11.046,8.954-20,20-20h252c11.046,0,20,8.954,20,20v0   C396.5,301.046,387.546,310,376.5,310z"/>
	<path style="fill:#84B8C8;" d="M376.5,310H162.516c-11.046,0-20-8.954-20-20v0c0-11.046,8.954-20,20-20H376.5   c11.046,0,20,8.954,20,20v0C396.5,301.046,387.546,310,376.5,310z"/>
</g>















</svg>
