<?xml version="1.0" encoding="iso-8859-1"?>
<!-- Generator: Adobe Illustrator 19.0.0, SVG Export Plug-In . SVG Version: 6.00 Build 0)  -->
<svg xmlns="http://www.w3.org/2000/svg" xmlns:xlink="http://www.w3.org/1999/xlink" version="1.1" id="Capa_1" x="0px" y="0px" viewBox="0 0 501 501" style="enable-background:new 0 0 501 501;" xml:space="preserve" width="512" height="512">
<g>
	<path style="fill:#0AB174;" d="M495.5,256c0,44.55-11.894,86.32-32.675,122.314c-18.897,32.733-157.632,121.216-205.149,122.582   C255.293,500.965,252.9,501,250.5,501c-74.406,0-141.064-33.168-185.997-85.526c-4.829-5.627-21.286-28.633-24.729-34.422   C18.003,344.445,5.5,301.683,5.5,256c0-135.31,109.69-245,245-245S495.5,120.69,495.5,256z"/>
	<path style="fill:#B5F3FB;" d="M469.7,310.4c0,38.309-19.88,66.335-28.857,86.316C434.44,410.966,420.122,420,404.5,420h-42.613   c-13.646,0-26.295-6.895-33.544-18.135c-2.103,22.776-6.577,40.805-12.888,54.852C309.053,470.966,294.734,480,279.113,480h-57.225   c-15.622,0-29.94-9.034-36.343-23.284c-6.311-14.047-10.785-32.076-12.888-54.852C165.407,413.105,152.758,420,139.113,420H81.887   c-5.81,0-11.438-1.254-16.547-3.557c-9.526-10.985-18.079-22.834-25.552-35.4C34.361,362.804,31.3,339.59,31.3,310.4   c0-19.338,1.35-39.87,3.834-60.4c0.403-3.335,0.837-6.67,1.3-10c0.205-1.473,3.394-5.712,4.066-10   c0.636-4.058-1.246-8.16-0.923-10.001c1.184-6.747,2.484-13.428,3.892-20c0.36-1.678,3.051-5.841,4.031-9.999   c0.984-4.177,0.256-8.35,0.682-10c5.555-21.528,12.29-41.24,19.909-57.366c5.532-11.709,4.695-25.584-2.72-36.201   C59.15,77.525,55.5,66.69,55.5,55c0-30.037,24.078-54.45,53.986-54.991c30.354-0.549,55.726,24.103,56.012,54.46   c0.113,11.939-3.582,23.006-9.942,32.068c-7.334,10.45-8.357,24.089-2.873,35.618c7.713,16.214,14.525,36.103,20.135,57.844   c0.713,2.761,0.426,6.349,1.099,9.167c0.915,3.831,2.773,6.914,3.613,10.832c1.408,6.572,2.708,13.253,3.892,20   c0.572,3.259,0.117,6.533,0.634,9.818c0.517,3.285,2.006,6.579,2.467,9.879c0.46,3.297,0.891,6.599,1.293,9.901   c0.435-1.84,1.087-3.78,1.539-5.597c0.342-1.376,0.48-2.636,0.832-3.998c5.556-21.527,12.286-41.243,19.905-57.368   c5.532-11.709,4.695-25.584-2.72-36.201C199.15,137.525,195.5,126.69,195.5,115c0-30.037,24.078-54.45,53.986-54.991   c30.354-0.549,55.726,24.103,56.012,54.46c0.113,11.939-3.582,23.006-9.942,32.068c-7.334,10.45-8.357,24.089-2.873,35.618   c7.712,16.212,14.521,36.105,20.132,57.845c0.384,1.489-0.237,2.986,0.136,4.491c0.418,1.688,1.829,3.387,2.233,5.095   c0.389-3.197,0.806-6.394,1.25-9.586c0.441-3.175,2.261-6.464,2.755-9.626c0.548-3.511-0.223-6.892,0.388-10.375   c1.184-6.747,2.484-13.428,3.893-20c0.697-3.253,2.865-6.806,3.615-10c0.817-3.483,0.221-6.6,1.098-9.999   c5.556-21.528,12.29-41.24,19.91-57.367c5.532-11.709,4.695-25.584-2.72-36.201C339.15,77.525,335.5,66.69,335.5,55   c0-30.037,24.078-54.45,53.986-54.991c30.354-0.549,55.726,24.103,56.012,54.46c0.113,11.939-3.582,23.006-9.942,32.068   c-7.334,10.45-8.357,24.089-2.873,35.618c7.712,16.214,14.527,36.102,20.14,57.843c0.841,3.258,0.142,6.666,0.928,10.001   c0.786,3.335,3.057,6.598,3.786,9.998c1.409,6.572,2.709,13.253,3.894,20c0.581,3.309-0.705,6.666-0.18,10.001   c0.524,3.335,2.858,6.648,3.324,9.999C467.886,263.826,469.7,287.92,469.7,310.4z"/>
	<path style="fill:#DCFBFF;" d="M432.682,122.156c7.712,16.214,14.527,36.102,20.139,57.843c0.85,3.294,0.673,6.63,1.467,10.002   c0.777,3.3,2.527,6.635,3.248,9.998c1.409,6.572,2.709,13.253,3.894,19.999c0.583,3.32,0.137,6.655,0.663,10.001   c0.522,3.324,2.016,6.659,2.481,9.999c3.313,23.828,5.126,47.922,5.126,70.402c0,28.633-2.943,51.522-8.177,69.6   c-1.769,6.109-28.58,30-37.823,30l0,0c-38.646,0-71.314-28.552-76.56-66.84c-1.722-12.57-2.64-26.769-2.64-42.76   c0-63.952,14.677-140.961,36.791-187.766c5.532-11.709,4.695-25.584-2.72-36.201C372.35,67.525,368.7,56.69,368.7,45   c0-18.589,9.227-35.015,23.345-44.971c29.207,0.835,53.174,24.941,53.453,54.44c0.113,11.939-3.582,23.006-9.942,32.068   C428.222,96.987,427.198,110.627,432.682,122.156z M171.3,370.4c0-38.687,5.378-82.143,14.517-120.809   c-0.389-3.199-0.806-6.397-1.25-9.59c-0.41-2.951-1.843-5.898-2.299-8.837c-0.579-3.736-0.194-7.46-0.844-11.164   c-1.184-6.747-2.484-13.429-3.893-20.001c-0.721-3.363-2.47-6.698-3.247-9.998c-0.77-3.272-0.567-6.51-1.391-9.709   c-5.625-21.855-12.464-41.849-20.211-58.136c-5.484-11.529-4.461-25.168,2.873-35.618c6.36-9.062,10.054-20.129,9.942-32.068   c-0.278-29.499-24.246-53.605-53.453-54.44C97.927,9.984,88.7,26.411,88.7,45c0,11.69,3.65,22.525,9.871,31.433   c7.415,10.618,8.252,24.492,2.72,36.201C79.176,159.439,64.5,236.447,64.5,300.4c0,15.991,0.918,30.19,2.64,42.76   C72.386,381.447,105.054,410,143.7,410c9.243,0,18.137-1.649,26.402-4.658c0.912-1.12,1.757-2.302,2.55-3.524   C171.767,392.208,171.3,381.759,171.3,370.4z M295.556,146.537c6.36-9.062,10.054-20.129,9.942-32.068   c-0.278-29.499-24.246-53.605-53.452-54.44C237.927,69.984,228.7,86.411,228.7,105c0,11.69,3.65,22.525,9.871,31.433   c7.415,10.618,8.252,24.492,2.72,36.201C219.176,219.439,204.5,296.447,204.5,360.4c0,15.991,0.918,30.19,2.64,42.76   c5.246,38.288,37.914,66.84,76.56,66.84l0,0c9.243,0,18.137-1.649,26.402-4.658c2.117-2.599,3.938-5.476,5.353-8.625   c8.978-19.981,14.245-48.007,14.245-86.316c0-38.708-5.377-82.199-14.525-120.881c-0.387-1.636-1.358-3.234-1.758-4.852   c-0.385-1.555-0.198-3.131-0.595-4.668c-5.612-21.741-12.427-41.629-20.14-57.843C287.198,170.627,288.222,156.987,295.556,146.537   z"/>
	<path style="fill:#F05D22;" d="M184.568,240H36.433c0.932-6.703,1.984-13.381,3.146-20h141.844   C182.584,226.619,183.636,233.297,184.568,240z M172.819,180H48.179c-1.682,6.515-3.249,13.202-4.707,20h134.055   C176.07,193.201,174.501,186.515,172.819,180z M452.819,180h-124.64c-1.682,6.515-3.249,13.202-4.707,20h134.055   C456.07,193.201,454.501,186.515,452.819,180z M461.422,220H319.578c-1.162,6.619-2.214,13.297-3.146,20h148.135   C463.636,233.297,462.584,226.619,461.422,220z M179.578,280c-1.162,6.619-2.214,13.297-3.146,20h148.135   c-0.932-6.703-1.984-13.381-3.146-20H179.578z M317.527,260c-1.458-6.799-3.027-13.485-4.709-20h-124.64   c-1.682,6.515-3.249,13.202-4.707,20H317.527z"/>
	<path style="fill:#FF855B;" d="M74.62,200c1.318-6.775,2.758-13.452,4.3-20h93.899c1.682,6.515,3.251,13.201,4.709,20H74.62z    M184.568,240c-0.932-6.703-1.984-13.381-3.146-20H71.112c-1.043,6.64-1.969,13.319-2.778,20H184.568z M457.527,200   c-1.458-6.799-3.027-13.485-4.709-20h-93.899c-1.542,6.548-2.982,13.225-4.3,20H457.527z M464.568,240   c-0.932-6.703-1.984-13.381-3.146-20h-110.31c-1.043,6.64-1.969,13.319-2.778,20H464.568z M317.527,260   c-1.458-6.799-3.027-13.485-4.709-20h-93.899c-1.542,6.548-2.982,13.225-4.3,20H317.527z M324.568,300   c-0.932-6.703-1.984-13.381-3.146-20h-110.31c-1.043,6.64-1.969,13.319-2.778,20H324.568z"/>
	<path style="fill:#C44775;" d="M234.5,430c0-66.274,53.726-120,120-120c47.768,0,89.013,27.912,108.325,68.314   c-41.216,71.392-117.401,120.058-205.149,122.582C243.109,481.034,234.5,456.52,234.5,430z"/>
	<path style="fill:#D95785;" d="M309.666,493.807C282.147,471.819,264.5,437.964,264.5,400c0-25.475,7.945-49.09,21.482-68.518   C305.41,317.945,329.025,310,354.5,310c47.768,0,89.013,27.912,108.325,68.314C430.004,435.165,375.017,477.603,309.666,493.807z"/>
	<path style="fill:#903152;" d="M334.5,360c0,11.046-8.954,20-20,20s-20-8.954-20-20s8.954-20,20-20S334.5,348.954,334.5,360z    M314.5,400c-11.046,0-20,8.954-20,20s8.954,20,20,20s20-8.954,20-20S325.546,400,314.5,400z M374.5,340c-11.046,0-20,8.954-20,20   s8.954,20,20,20s20-8.954,20-20S385.546,340,374.5,340z"/>
</g>















</svg>
