<?xml version="1.0" encoding="UTF-8" standalone="no"?>
<svg
   xmlns:dc="http://purl.org/dc/elements/1.1/"
   xmlns:cc="http://creativecommons.org/ns#"
   xmlns:rdf="http://www.w3.org/1999/02/22-rdf-syntax-ns#"
   xmlns:svg="http://www.w3.org/2000/svg"
   xmlns="http://www.w3.org/2000/svg"
   height="512"
   width="512"
   xml:space="preserve"
   style="enable-background:new 0 0 501 501;"
   viewBox="0 0 501 501"
   y="0px"
   x="0px"
   id="Capa_1"
   version="1.1"><metadata
   id="metadata23"><rdf:RDF><cc:Work
       rdf:about=""><dc:format>image/svg+xml</dc:format><dc:type
         rdf:resource="http://purl.org/dc/dcmitype/StillImage" /><dc:title></dc:title></cc:Work></rdf:RDF></metadata><defs
   id="defs21" />
<g
   id="g16">
	
	
	
	
	
	
	
<path
   id="path2"
   d="M 490.23633,250.5 C 490.23633,382.90295 382.90295,490.23633 250.5,490.23633 118.09705,490.23633 10.763667,382.90295 10.763667,250.5 10.763667,118.09705 118.09705,10.76367 250.5,10.76367 c 132.40295,0 239.73633,107.33338 239.73633,239.73633 z"
   style="fill:#b5b5b5;stroke-width:0.97851562;fill-opacity:1" /><path
   id="path4"
   d="m 398.33322,250.5 c 0,81.64651 -66.18671,147.83322 -147.83322,147.83322 -81.64651,0 -147.83323,-66.18671 -147.83323,-147.83322 0,-81.64651 66.18672,-147.83322 147.83323,-147.83322 81.64651,0 147.83322,66.18671 147.83322,147.83322 z"
   style="fill:#c9c9c9;stroke-width:1.18266571;fill-opacity:1" /><path
   id="path6"
   d="M 469.88222,245.60742 364.42857,62.95574 c -1.74763,-3.02753 -4.97869,-4.89258 -8.47394,-4.89258 H 145.04537 c -3.49526,0 -6.72632,1.86505 -8.47395,4.89258 L 31.117771,245.60742 c -1.747629,3.02753 -1.747629,6.75763 0,9.78516 l 102.021999,176.7072 c 5.45927,10.36666 5.68838,10.42165 16.34023,10.83706 h 200.82468 c 11.17037,-0.70969 10.931,-0.38747 16.94789,-9.78516 l 102.62965,-177.7591 c 1.74763,-3.02753 1.74763,-6.75763 0,-9.78516 z m -25.42183,-4.89258 H 266.23355 L 355.34697,86.36574 Z M 249.89234,229.87778 161.99424,77.63347 h 175.7962 z M 145.04537,87.41863 233.55211,240.71484 H 56.539606 Z M 56.539606,260.28515 H 232.33679 l -87.8981,152.24431 z m 104.239314,163.08138 89.11342,-154.3491 89.11342,154.3491 z M 267.44887,260.28515 h 177.01152 l -88.50576,153.29622 z"
   style="fill:#a7a7a7;stroke-width:0.97851562;fill-opacity:1" /><path
   id="path8"
   d="m 294.36979,433.15168 c 0,5.40434 -4.38082,9.78516 -9.78516,9.78516 -5.40434,0 -9.78515,-4.38082 -9.78515,-9.78516 0,-5.40434 4.38081,-9.78515 9.78515,-9.78515 5.40434,0 9.78516,4.38081 9.78516,9.78515 z M 216.41536,77.63347 c 5.40435,0 9.78516,-4.38081 9.78516,-9.78515 0,-5.40435 -4.38081,-9.78516 -9.78516,-9.78516 -5.40434,0 -9.78515,4.38081 -9.78515,9.78516 0,5.40434 4.38081,9.78515 9.78515,9.78515 z m 68.16927,-19.57031 c -5.40434,0 -9.78515,4.38081 -9.78515,9.78516 0,5.40434 4.38081,9.78515 9.78515,9.78515 5.40434,0 9.78516,-4.38081 9.78516,-9.78515 0,-5.40435 -4.38082,-9.78516 -9.78516,-9.78516 z m -68.16927,365.30337 c -5.40434,0 -9.78515,4.38081 -9.78515,9.78515 0,5.40434 4.38081,9.78516 9.78515,9.78516 5.40435,0 9.78516,-4.38082 9.78516,-9.78516 0,-5.40434 -4.38179,-9.78515 -9.78516,-9.78515 z M 98.993482,137.80729 c -5.40434,0 -9.78515,4.38081 -9.78515,9.78516 0,5.40434 4.38081,9.78515 9.78515,9.78515 5.404348,0 9.785158,-4.38081 9.785158,-9.78515 0,-5.40337 -4.38179,-9.78516 -9.785158,-9.78516 z M 86.231685,321.19775 c -5.404342,0 -9.785157,4.38082 -9.785157,9.78516 0,5.40434 4.380815,9.78515 9.785157,9.78515 5.404337,0 9.785157,-4.38081 9.785157,-9.78515 0,-5.40434 -4.38082,-9.78516 -9.785157,-9.78516 z m 328.658935,0 c -5.40434,0 -9.78515,4.38082 -9.78515,9.78516 0,5.40434 4.38081,9.78515 9.78515,9.78515 5.40434,0 9.78516,-4.38081 9.78516,-9.78515 0,-5.40434 -4.38082,-9.78516 -9.78516,-9.78516 z m -3.09896,-173.6053 c 0,-5.40435 -4.38081,-9.78516 -9.78515,-9.78516 -5.40434,0 -9.78516,4.38081 -9.78516,9.78516 0,5.40434 4.38082,9.78515 9.78516,9.78515 5.40434,0 9.78515,-4.38081 9.78515,-9.78515 z"
   style="fill:#9a9a9a;stroke-width:0.97851562;fill-opacity:1" /><path
   id="path10"
   d="m 260.28515,433.15168 c 0,5.40434 -4.38081,9.78516 -9.78515,9.78516 -5.40434,0 -9.78516,-4.38082 -9.78516,-9.78516 0,-5.40434 4.38082,-9.78515 9.78516,-9.78515 5.40434,0 9.78515,4.38081 9.78515,9.78515 z M 250.5,58.06316 c -5.40434,0 -9.78516,4.38081 -9.78516,9.78516 0,5.40434 4.38082,9.78515 9.78516,9.78515 5.40434,0 9.78515,-4.38081 9.78515,-9.78515 0,-5.40435 -4.38081,-9.78516 -9.78515,-9.78516 z M 83.061294,165.48167 c -5.404342,0 -9.785156,4.38081 -9.785156,9.78515 0,5.40435 4.380814,9.78516 9.785156,9.78516 5.404338,0 9.785158,-4.38081 9.785158,-9.78516 0,-5.40434 -4.38082,-9.78515 -9.785158,-9.78515 z m 334.938076,0 c -5.40434,0 -9.78516,4.38081 -9.78516,9.78515 0,5.40435 4.38082,9.78516 9.78516,9.78516 5.40434,0 9.78515,-4.38081 9.78515,-9.78516 0,-5.40434 -4.38081,-9.78515 -9.78515,-9.78515 z"
   style="fill:#c0c0c0;stroke-width:0.97851562;fill-opacity:1" /><path
   id="path12"
   d="m 258.55924,115.2334 35.29251,71.51302 c 1.30874,2.65166 3.83956,4.49165 6.76712,4.91574 l 78.91853,11.46851 c 7.37133,1.07162 10.31484,10.13015 4.98186,15.3309 l -57.10553,55.66455 c -2.11814,2.0657 -3.08487,5.03886 -2.58554,7.955 l 13.48178,78.59934 c 1.25858,7.34167 -6.4479,12.94141 -13.03946,9.4735 l -70.58732,-37.10969 c -2.61747,-1.37714 -5.74566,-1.37714 -8.36541,0 l -70.58732,37.10969 c -6.59383,3.46564 -14.30032,-2.13183 -13.03946,-9.4735 l 13.48178,-78.59934 c 0.49934,-2.91614 -0.46739,-5.8893 -2.58554,-7.955 l -57.10552,-55.66455 c -5.33525,-5.20075 -2.39175,-14.25928 4.98185,-15.3309 l 78.91853,-11.46851 c 2.92756,-0.42637 5.45839,-2.26408 6.76712,-4.91574 l 35.29252,-71.51302 c 3.29463,-6.68048 12.82059,-6.68048 16.1175,0 z"
   style="fill:#eeeeee;stroke-width:2.28002572;fill-opacity:1" /><path
   id="path14"
   d="m 384.51926,218.45929 -57.10553,55.66454 c -2.11814,2.06572 -3.08487,5.03886 -2.58554,7.95501 l 1.8377,10.70929 c -3.57736,0.21888 -7.17297,0.36709 -10.80505,0.36709 -67.9288,0 -126.7261,-38.94057 -155.39743,-95.6927 l 39.91641,-5.80036 c 2.92755,-0.42637 5.45839,-2.26408 6.76712,-4.91574 l 35.29252,-71.51302 c 3.29691,-6.68048 12.82287,-6.68048 16.11978,0 l 35.29251,71.51302 c 1.30874,2.65166 3.83956,4.49165 6.76712,4.91574 l 78.91853,11.46851 c 7.37361,1.06933 10.31711,10.12788 4.98186,15.32862 z"
   style="fill:#fbfbfb;stroke-width:2.28002572;fill-opacity:1" /></g>















</svg>