<?xml version="1.0" encoding="iso-8859-1"?>
<!-- Generator: Adobe Illustrator 19.0.0, SVG Export Plug-In . SVG Version: 6.00 Build 0)  -->
<svg xmlns="http://www.w3.org/2000/svg" xmlns:xlink="http://www.w3.org/1999/xlink" version="1.1" id="Capa_1" x="0px" y="0px" viewBox="0 0 501 501" style="enable-background:new 0 0 501 501;" xml:space="preserve" width="512" height="512">
<g>
	<path style="fill:#24BD87;" d="M78.027,421.421c-4.693,0.64-9.366-1.181-12.474-4.756C28.153,373.651,5.5,317.475,5.5,256   c0-135.173,109.468-244.778,244.589-245c134.653-0.221,244.857,109.321,245.409,243.973   c0.254,61.938-22.488,118.551-60.163,161.821c-3.071,3.527-7.733,5.258-12.367,4.626C368.56,414.004,310.619,410,250.5,410   C190.38,410,132.437,414.005,78.027,421.421z"/>
	<path style="fill:#EF3C54;" d="M250.25,110L250.25,110h-150V39.318C100.25,17.603,117.853,0,139.568,0l0,0   c6.995,0,13.863,1.866,19.896,5.405l46.51,27.286C233.401,48.782,250.25,78.201,250.25,110z M361.432,0L361.432,0   c-6.995,0-13.863,1.866-19.896,5.405l-46.51,27.286C267.599,48.782,250.75,78.201,250.75,110l0,0h150V39.318   C400.75,17.603,383.147,0,361.432,0z"/>
	<path style="fill:#D43147;" d="M400.75,39.318V110h-300.5V39.318c0-18.143,12.292-33.407,29-37.94l0,0   c0,38.852,29.652,71.28,68.349,74.749l5.604,0.502c6.696,0.6,12.328-4.745,12.297-11.468c-0.006-1.423,0.073-2.866,0.243-4.326   c1.942-16.617,15.71-29.666,32.405-30.757C268.543,28.744,285.5,44.892,285.5,65c0,0.046,0,0.092,0,0.137   c-0.026,6.732,5.591,12.092,12.297,11.491l5.605-0.502c38.697-3.468,68.349-35.897,68.349-74.749l0,0   C388.458,5.911,400.75,21.175,400.75,39.318z"/>
	<path style="fill:#FFB23C;" d="M456.5,105v60c0,1.553-0.236,3.052-0.674,4.46c-1.899,6.106-7.595,10.54-14.326,10.54h-6v236.623   C390.581,468.315,324.359,501,250.5,501s-140.081-32.685-185-84.377V180h-6c-6.731,0-12.427-4.434-14.326-10.54   c-0.438-1.409-0.674-2.907-0.674-4.46v-60c0-8.284,6.716-15,15-15h146.095c1.011,11.212,10.43,20,21.905,20h46   c11.476,0,20.894-8.788,21.905-20H441.5C449.784,90,456.5,96.716,456.5,105z"/>
	<path style="fill:#FFBD61;" d="M456.5,105v60c0,8.284-6.716,15-15,15h-352c-8.284,0-15-6.716-15-15v-60c0-8.284,6.716-15,15-15   h116.095c1.011,11.212,10.43,20,21.905,20h46c11.476,0,20.894-8.788,21.905-20H441.5C449.784,90,456.5,96.716,456.5,105z M94.5,230   v214.921C136.874,479.95,191.228,501,250.5,501c73.859,0,140.081-32.685,185-84.377V210h-321C103.454,210,94.5,218.954,94.5,230z"/>
	<path style="fill:#EF3C54;" d="M252.819,30.085c4.65,0.304,9.053,1.512,13.033,3.457c5.222,3.609,8.648,9.63,8.648,16.458   c0,11.046-8.954,20-20,20s-20-8.954-20-20C234.5,39.522,242.562,30.941,252.819,30.085z M289.875,319.651l-31.253-13.89   c-5.171-2.298-11.074-2.298-16.246,0l-31.253,13.89c-2.645,1.176-5.625-0.761-5.625-3.655V90h90v225.995   C295.5,318.89,292.521,320.826,289.875,319.651z"/>
	<path style="fill:#D43147;" d="M205.5,180h90v30h-90V180z"/>
</g>















</svg>
