<?xml version="1.0" encoding="iso-8859-1"?>
<!-- Generator: Adobe Illustrator 19.0.0, SVG Export Plug-In . SVG Version: 6.00 Build 0)  -->
<svg xmlns="http://www.w3.org/2000/svg" xmlns:xlink="http://www.w3.org/1999/xlink" version="1.1" id="Capa_1" x="0px" y="0px" viewBox="0 0 501 501" style="enable-background:new 0 0 501 501;" xml:space="preserve" width="512" height="512">
<g>
	<path style="fill:#FFBD61;" d="M495.5,256c0,135.31-109.69,245-245,245S5.5,391.31,5.5,256s109.69-245,245-245   S495.5,120.69,495.5,256z"/>
	<path style="fill:#0AB174;" d="M272.853,205c0,52.467-42.533,95-95,95s-95-42.533-95-95s42.533-95,95-95   S272.853,152.533,272.853,205z"/>
	<path style="fill:#24BD87;" d="M272.853,205c0,44.964-31.248,82.605-73.206,92.459c-41.958-9.854-73.206-47.495-73.206-92.459   s31.248-82.605,73.206-92.459C241.605,122.395,272.853,160.036,272.853,205z"/>
	<path style="fill:#FFD69E;" d="M345.5,95c0,52.467-42.533,95-95,95s-95-42.533-95-95s42.533-95,95-95S345.5,42.533,345.5,95z"/>
	<path style="fill:#FFE2BD;" d="M345.5,95c0,44.964-31.248,82.605-73.206,92.459c-41.958-9.854-73.206-47.495-73.206-92.459   s31.248-82.605,73.206-92.459C314.252,12.395,345.5,50.036,345.5,95z"/>
	<path style="fill:#C44775;" d="M418.147,205c0,52.467-42.533,95-95,95s-95-42.533-95-95s42.533-95,95-95   S418.147,152.533,418.147,205z"/>
	<path style="fill:#D95785;" d="M418.147,205c0,44.964-31.248,82.605-73.206,92.459c-41.958-9.854-73.206-47.495-73.206-92.459   s31.248-82.605,73.206-92.459C386.899,122.395,418.147,160.036,418.147,205z"/>
	<path style="fill:#7D4B41;" d="M425.5,243.347v10c0,5.523-4.477,10-10,10h-8.01L262.298,500.712   c-3.91,0.186-7.842,0.288-11.798,0.288s-7.888-0.103-11.798-0.288L93.51,263.347H85.5c-5.523,0-10-4.477-10-10v-10   c0-5.523,4.477-10,10-10h330C421.023,233.347,425.5,237.824,425.5,243.347z"/>
	<path style="fill:#895348;" d="M425.5,243.347v10c0,5.523-4.477,10-10,10h-8.01L300.705,437.923   c-15.638,25.565-52.773,25.565-68.411,0l-18.542-30.314c-2.038-3.332,0.36-7.609,4.265-7.609H254.5   c5.743,0,10.355-4.841,9.978-10.665c-0.344-5.315-4.995-9.335-10.321-9.335H202.47c-3.482,0-6.714-1.811-8.531-4.782v0   c-4.076-6.663,0.72-15.218,8.531-15.218h72.03c5.743,0,10.355-4.841,9.978-10.665c-0.344-5.315-4.995-9.335-10.321-9.335h-96.624   c-3.191,0-6.152-1.66-7.817-4.382h0c-3.735-6.106,0.659-13.945,7.817-13.945h111.285c5.326,0,9.977-4.019,10.321-9.335   c0.377-5.824-4.235-10.665-9.978-10.665c0,0-109.802,0.007-135.063,0.009c-3.193,0-6.155-1.66-7.821-4.384l0,0   c-3.737-6.109,0.66-13.952,7.821-13.952h159.049c5.743,0,10.355-4.841,9.978-10.665c-0.344-5.315-4.995-9.335-10.321-9.335H125.51   H114.5c-5.523,0-10-4.477-10-10v-10c0-5.523,4.477-10,10-10h301C421.023,233.347,425.5,237.824,425.5,243.347z"/>
	<path style="fill:#D95785;" d="M384.5,225v90c0,8.284-6.716,15-15,15s-15-6.716-15-15v-55.872c-1.566,0.555-3.244,0.872-5,0.872   c-8.284,0-15-6.716-15-15v-20c0-8.284,6.716-15,15-15c3.847,0,7.345,1.461,10,3.842c2.655-2.381,6.153-3.842,10-3.842   C377.784,210,384.5,216.716,384.5,225z M369.5,350c-8.284,0-15,6.716-15,15s6.716,15,15,15s15-6.716,15-15S377.784,350,369.5,350z    M244.5,35c0,8.284-6.716,15-15,15s-15-6.716-15-15s6.716-15,15-15S244.5,26.716,244.5,35z"/>
	<path style="fill:#24BD87;" d="M314.5,15c0,8.284-6.716,15-15,15s-15-6.716-15-15s6.716-15,15-15S314.5,6.716,314.5,15z M199.5,80   c-8.284,0-15,6.716-15,15s6.716,15,15,15s15-6.716,15-15S207.784,80,199.5,80z"/>
	<path style="fill:#FC703B;" d="M314.5,65c0,8.284-6.716,15-15,15s-15-6.716-15-15s6.716-15,15-15S314.5,56.716,314.5,65z M189.5,10   c-8.284,0-15,6.716-15,15s6.716,15,15,15s15-6.716,15-15S197.784,10,189.5,10z"/>
</g>















</svg>
