<?xml version="1.0" encoding="iso-8859-1"?>
<!-- Generator: Adobe Illustrator 19.0.0, SVG Export Plug-In . SVG Version: 6.00 Build 0)  -->
<svg xmlns="http://www.w3.org/2000/svg" xmlns:xlink="http://www.w3.org/1999/xlink" version="1.1" id="Capa_1" x="0px" y="0px" viewBox="0 0 501 501" style="enable-background:new 0 0 501 501;" xml:space="preserve" width="512" height="512">
<g>
	<path style="fill:#8AE8F5;" d="M250.5,11c135.31,0,245,109.69,245,245s-109.69,245-245,245S5.5,391.31,5.5,256S115.19,11,250.5,11z   "/>
	<path style="fill:#0EBCD7;" d="M414.5,125c0,13.807-11.193,25-25,25s-25-11.193-25-25c0-11.324,7.531-20.884,17.856-23.958   C379.063,94.505,372.305,90,364.5,90c-11.028,0-20,8.972-20,20v340h-20V110c0-11.028-8.972-20-20-20   c-7.805,0-14.563,4.505-17.856,11.042C296.969,104.116,304.5,113.676,304.5,125c0,13.807-11.193,25-25,25s-25-11.193-25-25   c0-8.336,4.084-15.715,10.356-20.257C267.44,85.164,284.227,70,304.5,70c11.938,0,22.665,5.264,30,13.585   C341.835,75.264,352.562,70,364.5,70c20.273,0,37.06,15.164,39.644,34.743C410.416,109.285,414.5,116.664,414.5,125z"/>
	<path style="fill:#24BD87;" d="M355.542,477.39c-19.657-5.522-35.813-19.405-44.381-37.578C304.084,446.145,294.744,450,284.5,450   c-11.916,0-22.609-5.217-29.937-13.484C244.617,450.71,228.148,460,209.5,460c-30.376,0-55-24.625-55-55s24.624-55,55-55   c21.267,0,39.702,12.079,48.853,29.743c7.013-6.065,16.147-9.743,26.147-9.743c10.244,0,19.584,3.855,26.66,10.188   C322.358,356.44,346.504,340,374.5,340c37.249,0,67.69,29.097,69.864,65.801C420.908,436.111,390.508,460.77,355.542,477.39z"/>
	<path style="fill:#5CC899;" d="M254.489,333.378c0.875,63.262-50.296,115.844-113.56,116.613   c-20.628,0.251-40.023-4.936-56.849-14.209c-24.462-22.655-44.289-50.237-57.907-81.174C25.077,348.235,24.5,341.686,24.5,335   c0-35.876,16.431-67.912,42.175-89.002C52.837,229.495,44.5,208.222,44.5,185c0-18.776,5.447-36.28,14.848-51.018   c11.992-18.8,17.397-40.928,15.412-63.139C74.588,68.919,74.5,66.97,74.5,65c0-36.237,29.654-65.549,66.019-64.992   c34.495,0.528,62.857,28.408,63.948,62.89c0.088,2.773,0.001,5.508-0.249,8.195c-2.062,22.117,3.488,44.16,15.434,62.887   c9.401,14.738,14.849,32.243,14.849,51.02c0,23.222-8.337,44.495-22.175,60.998C237.681,266.77,254.002,298.159,254.489,333.378z"/>
	<path style="fill:#24BD87;" d="M124.08,435.782c10.846,5.977,22.762,10.244,35.384,12.464c-6.032,1.067-12.222,1.668-18.535,1.745   c-20.628,0.251-40.023-4.936-56.849-14.209c-24.462-22.655-44.289-50.237-57.907-81.174C25.077,348.235,24.5,341.686,24.5,335   c0-35.876,16.431-67.912,42.175-89.002C52.837,229.495,44.5,208.222,44.5,185c0-18.776,5.447-36.28,14.848-51.018   c11.982-18.786,17.424-40.883,15.418-63.074C74.59,68.963,74.5,66.992,74.5,65c0-36.237,29.654-65.549,66.019-64.992   c6.59,0.101,12.952,1.207,18.947,3.159c-19.218,6.223-34.514,21.147-41.241,40.129c-1.158,3.267,1.242,6.704,4.708,6.704H134.5   c5.743,0,10.355,4.841,9.978,10.665C144.134,65.981,139.484,70,134.158,70H120c-2.861,0-5.135,2.395-4.994,5.252   c0.086,1.749,0.157,3.554,0.155,4.753c-0.03,19.08-5.473,37.765-15.814,53.977C89.947,148.72,84.5,166.224,84.5,185   c0,23.222,8.337,44.495,22.175,60.998C80.931,267.088,64.5,299.124,64.5,335c0,6.686,0.577,13.235,1.672,19.608   C79.791,385.545,99.617,413.127,124.08,435.782z M154.5,100c0,5.523,4.477,10,10,10h10c5.523,0,10-4.477,10-10s-4.477-10-10-10h-10   C158.977,90,154.5,94.477,154.5,100z M174.5,140h-20c-5.523,0-10,4.477-10,10s4.477,10,10,10h20c5.523,0,10-4.477,10-10   S180.023,140,174.5,140z M114.5,160c-5.523,0-10,4.477-10,10s4.477,10,10,10h10c5.523,0,10-4.477,10-10s-4.477-10-10-10H114.5z"/>
	<path style="fill:#029A64;" d="M110.711,252.105c0,0.695-0.035,1.381-0.052,2.072c44.422,17.59,75.842,60.931,75.842,111.612   c0,43.572-23.224,81.718-57.968,102.741C55.008,426.245,5.5,346.904,5.5,256c0-30.124,5.449-58.972,15.395-85.628   c2.54-0.237,5.109-0.372,7.711-0.372C73.951,170,110.711,206.76,110.711,252.105z"/>
	<path style="fill:#018655;" d="M78.036,430h344.928c-44.274,43.886-105.2,71-172.464,71S122.31,473.886,78.036,430z"/>
	<path style="fill:#FFBD61;" d="M455,265v125.943c-12.033,18.199-26.427,34.696-42.75,49.057H145v37.175   c-11.159-5.333-21.852-11.483-32-18.376V265c0-8.284,6.716-15,15-15h2c8.284,0,15,6.716,15,15v155h278V265c0-8.284,6.716-15,15-15   h2C448.284,250,455,256.716,455,265z M283,380h2c8.284,0,15-6.716,15-15V265c0-8.284-6.716-15-15-15h-2c-8.284,0-15,6.716-15,15   v100C268,373.284,274.716,380,283,380z"/>
	<path style="fill:#D43147;" d="M459,320H109c-8.284,0-15-6.716-15-15v-90c0-8.284,6.716-15,15-15h350c8.284,0,15,6.716,15,15v90   C474,313.284,467.284,320,459,320z M453.5,385v-10c0-8.284-6.716-15-15-15h-350c-8.284,0-15,6.716-15,15v10c0,8.284,6.716,15,15,15   h350C446.784,400,453.5,393.284,453.5,385z"/>
	<path style="fill:#EF3C54;" d="M479.5,400h-367c-8.284,0-15-6.716-15-15v-10c0-8.284,6.716-15,15-15h367c8.284,0,15,6.716,15,15v10   C494.5,393.284,487.784,400,479.5,400z M459,200H133c-8.284,0-15,6.716-15,15v15c0,11.046,8.954,20,20,20h266.158   c5.326,0,9.977,4.019,10.321,9.335c0.377,5.824-4.235,10.665-9.978,10.665H138c-11.046,0-20,8.954-20,20v15c0,8.284,6.716,15,15,15   h326c8.284,0,15-6.716,15-15v-90C474,206.716,467.284,200,459,200z"/>
	<path style="fill:#FFE2BD;" d="M449.5,210c8.284,0,15,6.716,15,15s-6.716,15-15,15s-15-6.716-15-15S441.216,210,449.5,210z    M434.5,295c0,8.284,6.716,15,15,15s15-6.716,15-15s-6.716-15-15-15S434.5,286.716,434.5,295z M104.5,225c0,8.284,6.716,15,15,15   s15-6.716,15-15s-6.716-15-15-15S104.5,216.716,104.5,225z M104.5,295c0,8.284,6.716,15,15,15s15-6.716,15-15s-6.716-15-15-15   S104.5,286.716,104.5,295z"/>
</g>















</svg>
