<?xml version="1.0" encoding="iso-8859-1"?>
<!-- Generator: Adobe Illustrator 19.0.0, SVG Export Plug-In . SVG Version: 6.00 Build 0)  -->
<svg xmlns="http://www.w3.org/2000/svg" xmlns:xlink="http://www.w3.org/1999/xlink" version="1.1" id="Capa_1" x="0px" y="0px" viewBox="0 0 501 501" style="enable-background:new 0 0 501 501;" xml:space="preserve" width="512" height="512">
<g>
	<path style="fill:#8AE8F5;" d="M495.5,256c0,36.848-8.135,71.796-22.706,103.146c-38.936,83.771-123.832,130.52-222.294,130.52   c-80.146,0-151.304-27.15-196.003-86.647C23.731,362.069,5.5,311.164,5.5,256c0-135.31,109.69-245,245-245S495.5,120.69,495.5,256z   "/>
	<path style="fill:#FCA20C;" d="M446.5,107v78v30v89.253c0,106.705-85.026,194.88-191.715,196.71   c-1.425,0.024-2.854,0.037-4.285,0.037c-80.147,0-151.301-38.488-196-97.986V215v-30v-78c0-8.284,6.716-15,15-15h362   C439.784,92,446.5,98.716,446.5,107z"/>
	<path style="fill:#FFB23C;" d="M446.5,107v68v20v109.253c0,106.705-85.026,194.88-191.715,196.71   c-1.425,0.024-2.854,0.037-4.285,0.037c-69.075,0-131.463-28.597-176-74.584V195v-20v-68c0-8.284,6.716-15,15-15h342   C439.784,92,446.5,98.716,446.5,107z"/>
	<path style="fill:#D43147;" d="M474.5,355.358C436.385,441.158,350.437,501,250.5,501c-8.698,0-17.288-0.461-25.751-1.345   c-0.154-0.863-0.249-1.747-0.249-2.655V305c0-8.284,6.716-15,15-15h220c8.284,0,15,6.716,15,15V355.358z"/>
	<path style="fill:#EF3C54;" d="M250.5,501c-1.826,0-3.645-0.029-5.462-0.069c-0.34-1.255-0.538-2.568-0.538-3.931V305   c0-8.284,6.716-15,15-15h200c8.284,0,15,6.716,15,15v50.358C436.385,441.158,350.437,501,250.5,501z"/>
	<path style="fill:#895348;" d="M354.5,140c0,11.046-8.954,20-20,20s-20-8.954-20-20s8.954-20,20-20S354.5,128.954,354.5,140z    M174.5,120c-11.046,0-20,8.954-20,20s8.954,20,20,20s20-8.954,20-20S185.546,120,174.5,120z"/>
	<path style="fill:#CD968D;" d="M344.5,90v50c0,5.523-4.478,10-10,10s-10-4.477-10-10V90c0-38.598-31.402-70-70-70s-70,31.402-70,70   v50c0,5.523-4.478,10-10,10s-10-4.477-10-10V90c0-49.626,40.374-90,90-90S344.5,40.374,344.5,90z"/>
	<path style="fill:#B6273C;" d="M301.5,314c0,8.836-7.164,16-16,16s-16-7.164-16-16s7.164-16,16-16S301.5,305.164,301.5,314z    M413.5,298c-8.836,0-16,7.164-16,16s7.164,16,16,16s16-7.164,16-16S422.336,298,413.5,298z"/>
	<path style="fill:#FFE2BD;" d="M421.5,274v40c0,4.418-3.582,8-8,8s-8-3.582-8-8v-40c0-30.878-25.122-56-56-56s-56,25.122-56,56v40   c0,4.418-3.582,8-8,8s-8-3.582-8-8v-40c0-39.701,32.299-72,72-72S421.5,234.299,421.5,274z"/>
	<path style="fill:#B5F3FB;" d="M336.167,501H119.5c-8.284,0-15-6.716-15-15V368c0-8.284,6.716-15,15-15h216.667   c8.284,0,15,6.716,15,15v118C351.167,494.284,344.451,501,336.167,501z"/>
	<path style="fill:#DCFBFF;" d="M336.167,501h-192c-8.284,0-15-6.716-15-15V368c0-8.284,6.716-15,15-15h192c8.284,0,15,6.716,15,15   v118C351.167,494.284,344.451,501,336.167,501z"/>
	<path style="fill:#B5F3FB;" d="M323.333,444.017c0,18.824-15.26,34.083-34.083,34.083s-34.083-15.26-34.083-34.083   s15.26-34.083,34.083-34.083S323.333,425.193,323.333,444.017z"/>
	<path style="fill:#01A2BB;" d="M323.031,423.969l-53.828,53.829c-2.487,2.487-6.519,2.487-9.006,0l-2.101-2.102   c-2.487-2.487-2.487-6.519,0-9.006l53.828-53.828c2.487-2.487,6.519-2.487,9.006,0l2.102,2.102   C325.518,417.45,325.518,421.482,323.031,423.969z M266.332,431.571c5.784,0,10.472-4.689,10.472-10.473   s-4.689-10.473-10.472-10.473s-10.472,4.689-10.472,10.473S260.548,431.571,266.332,431.571z M314.794,459.088   c-5.784,0-10.472,4.689-10.472,10.473s4.689,10.472,10.472,10.472c5.784,0,10.472-4.688,10.472-10.472   S320.578,459.088,314.794,459.088z"/>
	<path style="fill:#2F7589;" d="M351.167,393.083H104.5v-18.5h246.667V393.083z"/>
	<path style="fill:#9DC6D4;" d="M190.833,450.5v8.5c0,2.761-2.239,5-5,5h-64c-2.761,0-5-2.239-5-5v-8.5c0-2.761,2.239-5,5-5h64   C188.595,445.5,190.833,447.739,190.833,450.5z M224.5,414.667H121.833c-2.761,0-5,2.239-5,5v8.5c0,2.762,2.239,5,5,5H224.5   c2.761,0,5-2.238,5-5v-8.5C229.5,416.905,227.261,414.667,224.5,414.667z"/>
</g>















</svg>
