<?xml version="1.0" encoding="iso-8859-1"?>
<!-- Generator: Adobe Illustrator 19.0.0, SVG Export Plug-In . SVG Version: 6.00 Build 0)  -->
<svg xmlns="http://www.w3.org/2000/svg" xmlns:xlink="http://www.w3.org/1999/xlink" version="1.1" id="Capa_1" x="0px" y="0px" viewBox="0 0 512 512" style="enable-background:new 0 0 512 512;" xml:space="preserve" width="512" height="512">
<g>
	<path style="fill:#84B8C8;" d="M59.001,407.167C28.844,366.449,11,316.061,11,261.5c0-135.31,109.69-245,245-245   s245,109.69,245,245c0,54.561-17.844,104.949-48.001,145.667H59.001z"/>
	<path style="fill:#1A4F5B;" d="M256,5.5c45.149,0,81.75,36.601,81.75,81.75S301.149,169,256,169s-81.75-36.601-81.75-81.75   S210.851,5.5,256,5.5z"/>
	<path style="fill:#FFD69E;" d="M256,29.301c32.005,0,57.949,25.945,57.949,57.949S288.005,145.199,256,145.199   s-57.949-25.945-57.949-57.949S223.995,29.301,256,29.301z"/>
	<path style="fill:#FFE2BD;" d="M313.949,87.25c0,27.002-18.468,49.691-43.462,56.124c-24.994-6.433-43.462-29.121-43.462-56.124   s18.468-49.691,43.462-56.124C295.481,37.559,313.949,60.248,313.949,87.25z"/>
	<path style="fill:#E48F00;" d="M262.106,86.151c0.066,0.362,0.103,0.728,0.103,1.099c0,6.287-9.729,11.383-21.731,11.383   s-21.731-5.096-21.731-11.383s9.729-11.383,21.731-11.383c1.902,0,3.747,0.129,5.505,0.369c-0.871-3.803-1.366-8.158-1.366-12.787   c0-14.859,5.096-26.905,11.383-26.905s11.383,12.046,11.383,26.905C267.383,72.996,265.277,81.375,262.106,86.151z"/>
	<path style="fill:#FFBD61;" d="M256,70.693c9.144,0,16.557,7.413,16.557,16.557s-7.413,16.557-16.557,16.557   s-16.557-7.413-16.557-16.557S246.856,70.693,256,70.693z"/>
	<path style="fill:#0AB174;" d="M479,363.093c-12.254,26.855-83.84,101.343-103.626,112.405   C340.054,495.245,299.342,506.5,256,506.5c-43.33,0-84.031-11.249-119.345-30.986C115.099,463.466,44.413,388.104,33,363.093H479z"/>
	<path style="fill:#FFB23C;" d="M436,427.687c-17.509,18.955-37.937,35.134-60.626,47.813h-22.895c-3.491,0-6.729-1.821-8.544-4.803   L328,444.5H182.286l-14.289,25.839c-1.761,3.184-5.112,5.161-8.751,5.161h-22.585C113.972,462.82,93.509,446.641,76,427.687V385.5   h360V427.687z"/>
	<path style="fill:#F05D22;" d="M441,315.5c0,5.26-1.358,10.202-3.736,14.5c2.378,4.298,3.736,9.24,3.736,14.5v41   c0,16.569-13.431,30-30,30H281c-10.437,0-19.626-5.333-25-13.419c-5.374,8.087-14.563,13.419-25,13.419H101   c-16.569,0-30-13.431-30-30v-41c0-5.26,1.358-10.202,3.736-14.5C72.358,325.702,71,320.76,71,315.5v-130c0-16.569,13.431-30,30-30   h130c10.437,0,19.626,5.333,25,13.419c5.374-8.087,14.563-13.419,25-13.419h130c16.569,0,30,13.431,30,30V315.5z"/>
	<path style="fill:#FC703B;" d="M251,254.16c0,25.227-20.273,45.983-45.499,46.101c-0.167,0.001-0.334,0.001-0.5,0.001h0   c-52.467,0-95-38.482-95-85.952v-18.095c0-14.731,4.099-28.595,11.317-40.714H231c10.734,0,20.145,5.104,25.447,12.772   C253.019,173.148,251,179.087,251,185.5V254.16z M411,314.5H281c-10.437,0-19.626,5.333-25,13.419   c-5.374-8.087-14.563-13.419-25-13.419H101c-16.569,0-30,13.431-30,30c0,16.569,13.431,30,30,30h130   c10.437,0,19.626-5.333,25-13.419c5.374,8.087,14.563,13.419,25,13.419h130c16.569,0,30-13.431,30-30   C441,327.931,427.569,314.5,411,314.5z M411,155.5H301.317C294.099,167.619,290,181.483,290,196.214v18.095   c0,47.47,42.533,85.952,95,85.952h0c20.942,0,40.296-6.135,56-16.521V182.643C441,167.652,427.569,155.5,411,155.5z"/>
	<path style="fill:#E988A9;" d="M154,206c16.908,0,33.177,1.068,48.392,3.038c4.463,0.578,7.992,4.107,8.57,8.57   C212.932,232.823,214,249.092,214,266c0,16.908-1.068,33.177-3.038,48.392c-0.578,4.463-4.107,7.992-8.57,8.57   C187.177,324.932,170.908,326,154,326s-33.177-1.067-48.392-3.038c-4.463-0.578-7.992-4.107-8.57-8.57   C95.068,299.177,94,282.908,94,266c0-16.908,1.068-33.177,3.038-48.392c0.578-4.463,4.107-7.992,8.57-8.57   C120.823,207.068,137.092,206,154,206z"/>
	<path style="fill:#F0A1BB;" d="M210.962,217.608C212.932,232.823,214,249.092,214,266c0,8.484-0.269,16.807-0.786,24.917   c-9.846,7.256-21.991,11.563-35.122,11.582c-0.197,0-0.394,0-0.591,0s-0.394,0-0.591,0c-32.727-0.048-59.36-26.681-59.408-59.408   c0-0.197,0-0.394,0-0.591s0-0.395,0-0.592c0.019-13.132,4.326-25.277,11.582-35.122C137.193,206.269,145.516,206,154,206   c16.908,0,33.177,1.068,48.392,3.038C206.855,209.615,210.384,213.145,210.962,217.608z"/>
	<path style="fill:#F05D22;" d="M502,301.604V389.5c0,24.853-20.147,45-45,45h0c-24.853,0-45-20.147-45-45v-87.896   c-6.293-8.943-10-19.838-10-31.604c0-30.376,24.624-55,55-55s55,24.624,55,55C512,281.766,508.293,292.661,502,301.604z M55,215   c-30.376,0-55,24.624-55,55c0,11.766,3.707,22.661,10,31.604V389.5c0,24.853,20.147,45,45,45h0c24.853,0,45-20.147,45-45v-87.896   c6.293-8.943,10-19.838,10-31.604C110,239.624,85.376,215,55,215z"/>
	<path style="fill:#D14F1B;" d="M85,264.5c0,4.417-8.596,8.163-20.513,9.487C63.163,285.904,59.417,294.5,55,294.5   c-4.417,0-8.163-8.596-9.487-20.513C33.596,272.663,25,268.917,25,264.5s8.596-8.163,20.513-9.487   C46.837,243.096,50.583,234.5,55,234.5s8.163,8.596,9.487,20.513C76.404,256.337,85,260.083,85,264.5z M469.487,255.013   c-1.324-11.917-5.069-20.513-9.487-20.513s-8.163,8.596-9.487,20.513C438.596,256.337,430,260.083,430,264.5   s8.596,8.163,20.513,9.487c1.324,11.917,5.069,20.513,9.487,20.513c4.417,0,8.163-8.596,9.487-20.513   C481.404,272.663,490,268.917,490,264.5C490,260.083,481.404,256.337,469.487,255.013z"/>
</g>















</svg>
