<?xml version="1.0" encoding="iso-8859-1"?>
<!-- Generator: Adobe Illustrator 19.0.0, SVG Export Plug-In . SVG Version: 6.00 Build 0)  -->
<svg xmlns="http://www.w3.org/2000/svg" xmlns:xlink="http://www.w3.org/1999/xlink" version="1.1" id="Capa_1" x="0px" y="0px" viewBox="0 0 501 501" style="enable-background:new 0 0 501 501;" xml:space="preserve" width="512" height="512">
<g>
	<path style="fill:#0AB174;" d="M490,250.5c0,80.825-39.147,152.497-99.506,197.12c-4.757,3.517-11.494,0.144-11.494-5.772v0   c0-42.718-34.63-77.348-77.348-77.348H36.795c-5.434,0-10.378-3.125-12.732-8.022C8.648,324.405,0,288.465,0,250.501   C0,115.423,110.325,5.283,245.402,5.5C380.527,5.718,490,115.324,490,250.5z"/>
	<path style="fill:#5CC899;" d="M399,49.5L399,49.5c0,8.284-6.716,15-15,15H229c-5.523,0-10,4.477-10,10c0,5.523,4.477,10,10,10h85   c8.284,0,15,6.716,15,15c0,8.284-6.716,15-15,15H154c-8.284,0-15-6.716-15-15c0-8.284,6.716-15,15-15h45c5.523,0,10-4.477,10-10   c0-5.523-4.477-10-10-10h-15c-8.284,0-15-6.716-15-15v0c0-8.284,6.716-15,15-15h200C392.284,34.5,399,41.216,399,49.5z"/>
	<path style="fill:#FFB23C;" d="M392,154.5c-0.334,0-0.667,0.01-1,0.013V119.5c0-8.284-6.716-15-15-15H76c-8.284,0-15,6.716-15,15   v292.75c44.899,51.035,110.683,83.25,184,83.25c54.709,0,105.225-17.938,146-48.244v-27.377c0.333,0.003,0.666,0.013,1,0.013   c60.199,0,109-48.801,109-109V263.5C501,203.301,452.199,154.5,392,154.5z M458.348,306.152c0,36.643-29.705,66.348-66.348,66.348   c-0.335,0-0.666-0.02-1-0.025V201.917c0.334-0.005,0.665-0.025,1-0.025c36.643,0,66.348,29.705,66.348,66.348V306.152z"/>
	<path style="fill:#FFBD61;" d="M245.5,424.5L245.5,424.5C165.143,424.5,100,359.357,100,279V119.5c0-8.284,6.716-15,15-15h261   c8.284,0,15,6.716,15,15V279C391,359.357,325.857,424.5,245.5,424.5z"/>
	<path style="fill:#D95785;" d="M310.429,254.5L310.429,254.5c-5.523,0-10-4.477-10-10v-140c0-5.523,4.477-10,10-10h0   c5.523,0,10,4.477,10,10v140C320.429,250.023,315.951,254.5,310.429,254.5z"/>
	<path style="fill:#FFE2BD;" d="M339,284.5h-57.143c-5.523,0-10-4.477-10-10v-70c0-5.523,4.477-10,10-10H339c5.523,0,10,4.477,10,10   v70C349,280.023,344.523,284.5,339,284.5z"/>
	<path style="fill:#FFF5F5;" d="M319,264.5L319,264.5c-16.569,0-30-13.431-30-30v-10c0-16.569,13.431-30,30-30h20   c5.523,0,10,4.477,10,10v30C349,251.069,335.569,264.5,319,264.5z"/>
	<path style="fill:#9D6256;" d="M229,434.5c0,9.434-6.54,17.322-15.328,19.429c-1.661,11.22-9.534,20.409-20.011,23.972   c-3.024,3.518-6.277,6.833-9.736,9.923c-70.846-18.179-129.302-67.247-160.181-131.997c4.302-7.218,9.444-13.877,15.293-19.84   C39.014,335.494,39,334.999,39,334.5c0-16.569,13.431-30,30-30c5.624,0,10.884,1.551,15.382,4.243   c9.394-2.757,19.332-4.243,29.618-4.243c29.033,0,55.314,11.785,74.321,30.83c1.802-0.533,3.705-0.83,5.679-0.83   c11.046,0,20,8.954,20,20c0,4.568-1.548,8.764-4.125,12.131c5.862,13.09,9.125,27.598,9.125,42.869   c0,2.533-0.095,5.044-0.271,7.533C224.853,420.451,229,426.988,229,434.5z"/>
	<path style="fill:#895348;" d="M228.312,429.307c0.445,1.656,0.688,3.395,0.688,5.193c0,9.434-6.54,17.322-15.328,19.429   c-1.661,11.22-9.534,20.409-20.011,23.972c-3.024,3.518-6.277,6.833-9.736,9.923c-70.846-18.179-129.302-67.247-160.181-131.997   c3.045-5.108,6.518-9.929,10.357-14.429C51.587,394.981,112.067,434.5,184,434.5C199.4,434.5,214.271,432.68,228.312,429.307z"/>
	<path style="fill:#7D4B41;" d="M89,359.5c0,8.284-6.716,15-15,15s-15-6.716-15-15c0-8.284,6.716-15,15-15S89,351.216,89,359.5z    M154,374.5c8.284,0,15-6.716,15-15c0-8.284-6.716-15-15-15s-15,6.716-15,15C139,367.784,145.716,374.5,154,374.5z M159,414.5   c-11.046,0-20,8.954-20,20c0,11.046,8.954,20,20,20s20-8.954,20-20C179,423.454,170.046,414.5,159,414.5z"/>
</g>















</svg>
