<?xml version="1.0" encoding="iso-8859-1"?>
<!-- Generator: Adobe Illustrator 19.0.0, SVG Export Plug-In . SVG Version: 6.00 Build 0)  -->
<svg xmlns="http://www.w3.org/2000/svg" xmlns:xlink="http://www.w3.org/1999/xlink" version="1.1" id="Capa_1" x="0px" y="0px" viewBox="0 0 501 501" style="enable-background:new 0 0 501 501;" xml:space="preserve" width="512" height="512">
<g>
	<path style="fill:#8AE8F5;" d="M490,255.999c0,135.084-110.283,245.199-245.366,245c-22.451-0.033-44.19-3.098-64.839-8.79   c-6.463-1.781-11.664-6.58-14.004-12.862C141.013,412.83,88.17,359.988,21.652,335.21c-6.282-2.34-11.081-7.542-12.862-14.004   C3.098,300.556,0.033,278.819,0,256.368C-0.199,121.284,109.917,11,245.001,11C380.31,11,490,120.69,490,255.999z"/>
	<path style="fill:#FC703B;" d="M205.379,444.113c-7.811,7.81-7.811,20.474,0,28.284c0.239,0.239,0.377,0.374,0.386,0.708   c0.008,0.319-0.544,0.865-0.544,0.865l-19.735,19.735C97.994,471.87,29.13,403.006,7.295,315.514l6.072-6.072   c14.788-14.317,14.997-14.06,15.236-13.821c7.81,7.81,20.474,7.81,28.284,0l3.536-3.536l30.641,30.641l-3.536,3.536   c-7.81,7.81-7.81,20.474,0,28.284l0,0c7.81,7.81,20.474,7.81,28.284,0l3.535-3.536l30.642,30.641l-3.536,3.536   c-7.811,7.81-7.811,20.474,0,28.284l0,0c7.811,7.81,20.474,7.81,28.284,0l3.536-3.536l30.641,30.641L205.379,444.113z"/>
	<path style="fill:#F05D22;" d="M7.295,315.514l19.751-19.75c0,0,0.485-0.662,0.798-0.655c0.334,0.008,0.52,0.273,0.759,0.512   c7.81,7.81,20.474,7.81,28.284,0l3.536-3.536l14.849,14.849l-52.439,52.44C16.327,345.418,11.097,330.75,7.295,315.514z"/>
	<path style="fill:#FFBD61;" d="M322.759,1.464c7.81,7.81,20.474,7.811,28.284,0l0,0c1.953-1.953,5.118-1.953,7.071,0l23.57,23.57   c1.953,1.953,1.953,5.118,0,7.071l0,0c-7.81,7.81-7.81,20.474,0,28.284l0,0c7.81,7.81,20.474,7.81,28.284,0l0,0   c1.953-1.953,5.118-1.953,7.071,0l23.57,23.57c1.953,1.953,1.953,5.118,0,7.071l0,0c-7.81,7.81-7.81,20.474,0,28.284l0,0   c7.81,7.81,20.474,7.81,28.284,0l0,0c1.953-1.953,5.118-1.953,7.071,0l23.57,23.57c1.953,1.953,1.953,5.118,0,7.071l0,0   c-7.81,7.811-7.81,20.474,0,28.284c0.09,0.09,0.182,0.175,0.275,0.258c0.155,0.139,0.279,0.233,0.284,0.442   c0.004,0.167-0.288,0.443-0.288,0.443l-259.68,259.68c0,0-0.405,0.46-0.703,0.453c-0.334-0.008-0.572-0.115-0.81-0.354   c-7.81-7.81-20.474-7.81-28.284,0l-3.536,3.536l-30.641-30.641l3.536-3.536c7.81-7.81,7.81-20.474,0-28.284l0,0   c-7.81-7.81-20.474-7.81-28.284,0l-3.536,3.536l-30.641-30.641l3.536-3.536c7.81-7.81,7.81-20.474,0-28.284l0,0   c-7.81-7.81-20.474-7.81-28.284,0l-3.536,3.536l-30.641-30.641l3.536-3.536c7.81-7.81,7.81-20.474,0-28.284   c-0.239-0.239,0.156-1.57,0.156-1.57L321.281,1.528C321.281,1.528,322.52,1.226,322.759,1.464z"/>
	<path style="fill:#FFB23C;" d="M73.15,309.056l-14.849-14.849l3.536-3.536c7.81-7.81,7.81-20.474,0-28.284   c-0.239-0.239-0.346-0.382-0.354-0.716c-0.007-0.287,0.422-0.766,0.422-0.766L321.389,1.42c0,0,0.364-0.348,0.611-0.342   c0.334,0.008,0.52,0.148,0.759,0.386c7.81,7.81,20.474,7.81,28.284,0l0,0c1.953-1.953,5.118-1.953,7.071,0l11.314,11.314   L73.15,309.056z"/>
	<path style="fill:#FCA20C;" d="M457.463,170.817L330.184,43.537c-3.906-3.905-10.237-3.905-14.142,0L103.909,255.669   c-3.905,3.905-3.905,10.237,0,14.142l127.279,127.279c3.905,3.905,10.237,3.905,14.142,0l212.132-212.132   C461.368,181.054,461.368,174.722,457.463,170.817z M323.112,64.75l49.498,49.497L250.634,236.224l-49.497-49.497L323.112,64.75z    M238.26,375.878L125.123,262.74l61.872-61.872l113.137,113.137L238.26,375.878z M314.273,299.864l-49.497-49.497L386.752,128.39   l49.498,49.497L314.273,299.864z"/>
	<path style="fill:#F05D22;" d="M212.596,271.135l-10.854,3.374c-1.257,0.391-2.241,1.375-2.632,2.632l-3.374,10.854   c-0.984,3.166-5.171,3.829-7.086,1.122l-6.563-9.28c-0.76-1.075-2.001-1.707-3.317-1.69l-11.365,0.145   c-3.315,0.042-5.24-3.735-3.257-6.392l6.798-9.109c0.788-1.055,1.005-2.43,0.583-3.677l-3.65-10.764   c-1.065-3.14,1.933-6.137,5.073-5.073l10.764,3.65c1.247,0.423,2.622,0.205,3.677-0.582l9.109-6.798   c2.657-1.983,6.434-0.058,6.392,3.257l-0.145,11.365c-0.017,1.316,0.615,2.557,1.69,3.317l9.28,6.563   C216.425,265.963,215.761,270.151,212.596,271.135z M253.691,286.664l-3.536-3.536c-1.952-1.953-5.118-1.953-7.071,0   l-35.355,35.355c-1.953,1.953-1.953,5.118,0,7.071l3.535,3.536c1.953,1.953,5.119,1.953,7.071,0l35.355-35.355   C255.644,291.782,255.644,288.616,253.691,286.664z M251,321.175c-1.953-1.953-5.118-1.953-7.071,0l-16.754,16.754   c-1.953,1.953-1.953,5.118,0,7.071l3.536,3.536c1.953,1.953,5.118,1.953,7.071,0l16.754-16.754c1.953-1.953,1.953-5.118,0-7.071   L251,321.175z M231.896,189.201c1.953,1.953,5.119,1.953,7.071,0l85.776-85.776c1.953-1.953,1.953-5.118,0-7.071l-3.536-3.536   c-1.953-1.953-5.118-1.953-7.071,0l-85.776,85.776c-1.953,1.953-1.953,5.118,0,7.071L231.896,189.201z M325.664,134.324   l-3.535-3.536c-1.953-1.953-5.118-1.953-7.071,0l-67.175,67.175c-1.953,1.953-1.953,5.118,0,7.071l3.536,3.536   c1.953,1.953,5.118,1.953,7.071,0l67.175-67.175C327.616,139.443,327.616,136.277,325.664,134.324z M388.383,159.994l-3.536-3.536   c-1.953-1.953-5.118-1.953-7.071,0L292,242.234c-1.953,1.953-1.953,5.118,0,7.071l3.535,3.536c1.953,1.953,5.119,1.953,7.071,0   l85.776-85.776C390.335,165.112,390.335,161.946,388.383,159.994z M324.861,258.87c-2.929-2.929-7.677-2.929-10.607,0   c-2.929,2.929-2.929,7.678,0,10.607c2.929,2.929,7.678,2.929,10.607,0l0,0C327.79,266.548,327.79,261.799,324.861,258.87   L324.861,258.87z M331.932,241.193c-2.929,2.929-2.929,7.678,0,10.607s7.678,2.929,10.607,0s2.929-7.678,0-10.607   C339.61,238.264,334.861,238.264,331.932,241.193z M360.216,223.515c-2.929-2.929-7.677-2.929-10.606,0v0   c-2.929,2.929-2.929,7.678,0,10.607s7.678,2.929,10.606,0C363.146,231.193,363.146,226.444,360.216,223.515L360.216,223.515z"/>
</g>















</svg>
