<?xml version="1.0" encoding="UTF-8" standalone="no"?>
<svg
   xmlns:dc="http://purl.org/dc/elements/1.1/"
   xmlns:cc="http://creativecommons.org/ns#"
   xmlns:rdf="http://www.w3.org/1999/02/22-rdf-syntax-ns#"
   xmlns:svg="http://www.w3.org/2000/svg"
   xmlns="http://www.w3.org/2000/svg"
   id="svg118"
   version="1.1"
   style="width: 100%; height: 100%; transform: translate3d(0px, 0px, 0px);"
   preserveAspectRatio="xMidYMid meet"
   height="1080"
   width="1080"
   viewBox="0 0 1080 1080">
  <defs
     id="defs8">
    <clipPath
       id="__lottie_element_1706">
      <rect
         id="rect2"
         y="0"
         x="0"
         height="1080"
         width="1080" />
    </clipPath>
    <clipPath
       id="__lottie_element_1708">
      <path
         id="path5"
         d="M0,0 L1080,0 L1080,1080 L0,1080z" />
    </clipPath>
  </defs>
  <g
     transform="matrix(1.182245,0,0,1.182245,-98.412277,-98.413024)"
     id="g116"
     clip-path="url(#__lottie_element_1706)">
    <g
       id="g106"
       style="display:block;opacity:1"
       transform="rotate(179.84768,539.99997,539.99998)"
       clip-path="url(#__lottie_element_1708)">
      <g
         id="g16"
         style="display:block;opacity:0.9999994"
         transform="matrix(0.66522932,0.24211714,-0.26389304,0.72505969,511.68658,390.10696)">
        <g
           style="opacity:1"
           id="g14"
           transform="matrix(1.01853,0,0,1.61426,110.252,-115.346)">
          <path
             style="fill:#fdbf00;fill-opacity:1"
             id="path10"
             d="m 0,-150.90401 c 0,0 125.245,48.03301 143.51801,104.27201 C 161.791,9.6070004 125.78,76.022003 88.698997,122.084 69.070999,146.466 27.240999,136.69099 -4.059,136.69099 c -28.629999,0 -67.305998,8.17901 -84.639997,-14.60699 C -124.501,75.021004 -161.791,9.6070004 -143.51801,-46.632 -125.245,-102.871 0,-150.90401 0,-150.90401 Z" />
          <path
             style="fill-opacity:0;stroke:#ffffff;stroke-width:0;stroke-linecap:butt;stroke-linejoin:miter;stroke-miterlimit:4;stroke-opacity:1"
             id="path12"
             d="m 0,-150.90401 c 0,0 125.245,48.03301 143.51801,104.27201 C 161.791,9.6070004 125.78,76.022003 88.698997,122.084 69.070999,146.466 27.240999,136.69099 -4.059,136.69099 c -28.629999,0 -67.305998,8.17901 -84.639997,-14.60699 C -124.501,75.021004 -161.791,9.6070004 -143.51801,-46.632 -125.245,-102.871 0,-150.90401 0,-150.90401 Z"
             stroke-miterlimit="4" />
        </g>
      </g>
      <g
         id="g24"
         style="display:block;opacity:0.99999988"
         transform="matrix(0.12293507,0.69716406,-0.75986665,0.13399179,655.65448,440.53336)">
        <g
           style="opacity:1"
           id="g22"
           transform="matrix(1.01853,0,0,1.61426,110.252,-115.346)">
          <path
             style="fill:#fdbf00;fill-opacity:1"
             id="path18"
             d="m 0,-150.90401 c 0,0 125.245,48.03301 143.51801,104.27201 C 161.791,9.6070004 125.78,76.022003 88.698997,122.084 69.070999,146.466 27.240999,136.69099 -4.059,136.69099 c -28.629999,0 -67.305998,8.17901 -84.639997,-14.60699 C -124.501,75.021004 -161.791,9.6070004 -143.51801,-46.632 -125.245,-102.871 0,-150.90401 0,-150.90401 Z" />
          <path
             style="fill-opacity:0;stroke:#ffffff;stroke-width:0;stroke-linecap:butt;stroke-linejoin:miter;stroke-miterlimit:4;stroke-opacity:1"
             id="path20"
             d="m 0,-150.90401 c 0,0 125.245,48.03301 143.51801,104.27201 C 161.791,9.6070004 125.78,76.022003 88.698997,122.084 69.070999,146.466 27.240999,136.69099 -4.059,136.69099 c -28.629999,0 -67.305998,8.17901 -84.639997,-14.60699 C -124.501,75.021004 -161.791,9.6070004 -143.51801,-46.632 -125.245,-102.871 0,-150.90401 0,-150.90401 Z"
             stroke-miterlimit="4" />
        </g>
      </g>
      <g
         id="g32"
         style="display:block;opacity:0.99999988"
         transform="matrix(-0.54229426,0.45504692,-0.49597362,-0.59106791,683.9679,590.42639)">
        <g
           style="opacity:1"
           id="g30"
           transform="matrix(1.01853,0,0,1.61426,110.252,-115.346)">
          <path
             style="fill:#fdbf00;fill-opacity:1"
             id="path26"
             d="m 0,-150.90401 c 0,0 125.245,48.03301 143.51801,104.27201 C 161.791,9.6070004 125.78,76.022003 88.698997,122.084 69.070999,146.466 27.240999,136.69099 -4.059,136.69099 c -28.629999,0 -67.305998,8.17901 -84.639997,-14.60699 C -124.501,75.021004 -161.791,9.6070004 -143.51801,-46.632 -125.245,-102.871 0,-150.90401 0,-150.90401 Z" />
          <path
             style="fill-opacity:0;stroke:#ffffff;stroke-width:0;stroke-linecap:butt;stroke-linejoin:miter;stroke-miterlimit:4;stroke-opacity:1"
             id="path28"
             d="m 0,-150.90401 c 0,0 125.245,48.03301 143.51801,104.27201 C 161.791,9.6070004 125.78,76.022003 88.698997,122.084 69.070999,146.466 27.240999,136.69099 -4.059,136.69099 c -28.629999,0 -67.305998,8.17901 -84.639997,-14.60699 C -124.501,75.021004 -161.791,9.6070004 -143.51801,-46.632 -125.245,-102.871 0,-150.90401 0,-150.90401 Z"
             stroke-miterlimit="4" />
        </g>
      </g>
      <g
         id="g40"
         style="display:block;opacity:0.99999994"
         transform="matrix(-0.66522932,-0.24211714,0.26389304,-0.72505969,568.31342,689.89307)">
        <g
           style="opacity:1"
           id="g38"
           transform="matrix(1.01853,0,0,1.61426,110.252,-115.346)">
          <path
             style="fill:#fdbf00;fill-opacity:1"
             id="path34"
             d="m 0,-150.90401 c 0,0 125.245,48.03301 143.51801,104.27201 C 161.791,9.6070004 125.78,76.022003 88.698997,122.084 69.070999,146.466 27.240999,136.69099 -4.059,136.69099 c -28.629999,0 -67.305998,8.17901 -84.639997,-14.60699 C -124.501,75.021004 -161.791,9.6070004 -143.51801,-46.632 -125.245,-102.871 0,-150.90401 0,-150.90401 Z" />
          <path
             style="fill-opacity:0;stroke:#ffffff;stroke-width:0;stroke-linecap:butt;stroke-linejoin:miter;stroke-miterlimit:4;stroke-opacity:1"
             id="path36"
             d="m 0,-150.90401 c 0,0 125.245,48.03301 143.51801,104.27201 C 161.791,9.6070004 125.78,76.022003 88.698997,122.084 69.070999,146.466 27.240999,136.69099 -4.059,136.69099 c -28.629999,0 -67.305998,8.17901 -84.639997,-14.60699 C -124.501,75.021004 -161.791,9.6070004 -143.51801,-46.632 -125.245,-102.871 0,-150.90401 0,-150.90401 Z"
             stroke-miterlimit="4" />
        </g>
      </g>
      <g
         id="g48"
         style="display:block;opacity:0.99999994"
         transform="matrix(-0.12293507,-0.69716406,0.75986665,-0.13399179,424.34552,639.46667)">
        <g
           style="opacity:1"
           id="g46"
           transform="matrix(1.01853,0,0,1.61426,110.252,-115.346)">
          <path
             style="fill:#fdbf00;fill-opacity:1"
             id="path42"
             d="m 0,-150.90401 c 0,0 125.245,48.03301 143.51801,104.27201 C 161.791,9.6070004 125.78,76.022003 88.698997,122.084 69.070999,146.466 27.240999,136.69099 -4.059,136.69099 c -28.629999,0 -67.305998,8.17901 -84.639997,-14.60699 C -124.501,75.021004 -161.791,9.6070004 -143.51801,-46.632 -125.245,-102.871 0,-150.90401 0,-150.90401 Z" />
          <path
             style="fill-opacity:0;stroke:#ffffff;stroke-width:0;stroke-linecap:butt;stroke-linejoin:miter;stroke-miterlimit:4;stroke-opacity:1"
             id="path44"
             d="m 0,-150.90401 c 0,0 125.245,48.03301 143.51801,104.27201 C 161.791,9.6070004 125.78,76.022003 88.698997,122.084 69.070999,146.466 27.240999,136.69099 -4.059,136.69099 c -28.629999,0 -67.305998,8.17901 -84.639997,-14.60699 C -124.501,75.021004 -161.791,9.6070004 -143.51801,-46.632 -125.245,-102.871 0,-150.90401 0,-150.90401 Z"
             stroke-miterlimit="4" />
        </g>
      </g>
      <g
         id="g56"
         style="display:block;opacity:0.99999994"
         transform="matrix(0.54229426,-0.45504692,0.49597362,0.59106791,396.0321,489.57361)">
        <g
           style="opacity:1"
           id="g54"
           transform="matrix(1.01853,0,0,1.61426,110.252,-115.346)">
          <path
             style="fill:#fdbf00;fill-opacity:1"
             id="path50"
             d="m 0,-150.90401 c 0,0 125.245,48.03301 143.51801,104.27201 C 161.791,9.6070004 125.78,76.022003 88.698997,122.084 69.070999,146.466 27.240999,136.69099 -4.059,136.69099 c -28.629999,0 -67.305998,8.17901 -84.639997,-14.60699 C -124.501,75.021004 -161.791,9.6070004 -143.51801,-46.632 -125.245,-102.871 0,-150.90401 0,-150.90401 Z" />
          <path
             style="fill-opacity:0;stroke:#ffffff;stroke-width:0;stroke-linecap:butt;stroke-linejoin:miter;stroke-miterlimit:4;stroke-opacity:1"
             id="path52"
             d="m 0,-150.90401 c 0,0 125.245,48.03301 143.51801,104.27201 C 161.791,9.6070004 125.78,76.022003 88.698997,122.084 69.070999,146.466 27.240999,136.69099 -4.059,136.69099 c -28.629999,0 -67.305998,8.17901 -84.639997,-14.60699 C -124.501,75.021004 -161.791,9.6070004 -143.51801,-46.632 -125.245,-102.871 0,-150.90401 0,-150.90401 Z"
             stroke-miterlimit="4" />
        </g>
      </g>
      <g
         id="g64"
         style="display:block;opacity:0.99999988"
         transform="matrix(0.45504692,0.54229426,-0.59106791,0.49597362,590.42639,396.0321)">
        <g
           style="opacity:1"
           id="g62"
           transform="matrix(1.01853,0,0,1.61426,110.252,-115.346)">
          <path
             style="fill:#ffda2d;fill-opacity:1"
             id="path58"
             d="m 0,-150.90401 c 0,0 125.245,48.03301 143.51801,104.27201 C 161.791,9.6070004 125.78,76.022003 88.698997,122.084 69.070999,146.466 27.240999,136.69099 -4.059,136.69099 c -28.629999,0 -67.305998,8.17901 -84.639997,-14.60699 C -124.501,75.021004 -161.791,9.6070004 -143.51801,-46.632 -125.245,-102.871 0,-150.90401 0,-150.90401 Z" />
          <path
             style="fill-opacity:0;stroke:#ffffff;stroke-width:0;stroke-linecap:butt;stroke-linejoin:miter;stroke-miterlimit:4;stroke-opacity:1"
             id="path60"
             d="m 0,-150.90401 c 0,0 125.245,48.03301 143.51801,104.27201 C 161.791,9.6070004 125.78,76.022003 88.698997,122.084 69.070999,146.466 27.240999,136.69099 -4.059,136.69099 c -28.629999,0 -67.305998,8.17901 -84.639997,-14.60699 C -124.501,75.021004 -161.791,9.6070004 -143.51801,-46.632 -125.245,-102.871 0,-150.90401 0,-150.90401 Z"
             stroke-miterlimit="4" />
        </g>
      </g>
      <g
         id="g72"
         style="display:block;opacity:0.99999994"
         transform="matrix(-0.24211714,0.66522932,-0.72505969,-0.26389304,689.89307,511.68658)">
        <g
           style="opacity:1"
           id="g70"
           transform="matrix(1.01853,0,0,1.61426,110.252,-115.346)">
          <path
             style="fill:#ffda2d;fill-opacity:1"
             id="path66"
             d="m 0,-150.90401 c 0,0 125.245,48.03301 143.51801,104.27201 C 161.791,9.6070004 125.78,76.022003 88.698997,122.084 69.070999,146.466 27.240999,136.69099 -4.059,136.69099 c -28.629999,0 -67.305998,8.17901 -84.639997,-14.60699 C -124.501,75.021004 -161.791,9.6070004 -143.51801,-46.632 -125.245,-102.871 0,-150.90401 0,-150.90401 Z" />
          <path
             style="fill-opacity:0;stroke:#ffffff;stroke-width:0;stroke-linecap:butt;stroke-linejoin:miter;stroke-miterlimit:4;stroke-opacity:1"
             id="path68"
             d="m 0,-150.90401 c 0,0 125.245,48.03301 143.51801,104.27201 C 161.791,9.6070004 125.78,76.022003 88.698997,122.084 69.070999,146.466 27.240999,136.69099 -4.059,136.69099 c -28.629999,0 -67.305998,8.17901 -84.639997,-14.60699 C -124.501,75.021004 -161.791,9.6070004 -143.51801,-46.632 -125.245,-102.871 0,-150.90401 0,-150.90401 Z"
             stroke-miterlimit="4" />
        </g>
      </g>
      <g
         id="g80"
         style="display:block;opacity:0.99999994"
         transform="matrix(-0.69716406,0.12293507,-0.13399179,-0.75986665,639.46667,655.65448)">
        <g
           style="opacity:1"
           id="g78"
           transform="matrix(1.01853,0,0,1.61426,110.252,-115.346)">
          <path
             style="fill:#ffda2d;fill-opacity:1"
             id="path74"
             d="m 0,-150.90401 c 0,0 125.245,48.03301 143.51801,104.27201 C 161.791,9.6070004 125.78,76.022003 88.698997,122.084 69.070999,146.466 27.240999,136.69099 -4.059,136.69099 c -28.629999,0 -67.305998,8.17901 -84.639997,-14.60699 C -124.501,75.021004 -161.791,9.6070004 -143.51801,-46.632 -125.245,-102.871 0,-150.90401 0,-150.90401 Z" />
          <path
             style="fill-opacity:0;stroke:#ffffff;stroke-width:0;stroke-linecap:butt;stroke-linejoin:miter;stroke-miterlimit:4;stroke-opacity:1"
             id="path76"
             d="m 0,-150.90401 c 0,0 125.245,48.03301 143.51801,104.27201 C 161.791,9.6070004 125.78,76.022003 88.698997,122.084 69.070999,146.466 27.240999,136.69099 -4.059,136.69099 c -28.629999,0 -67.305998,8.17901 -84.639997,-14.60699 C -124.501,75.021004 -161.791,9.6070004 -143.51801,-46.632 -125.245,-102.871 0,-150.90401 0,-150.90401 Z"
             stroke-miterlimit="4" />
        </g>
      </g>
      <g
         id="g88"
         style="display:block;opacity:0.99999994"
         transform="matrix(-0.45504221,-0.5422982,0.5910722,-0.49596849,489.57236,683.96747)">
        <g
           style="opacity:1"
           id="g86"
           transform="matrix(1.01853,0,0,1.61426,110.252,-115.346)">
          <path
             style="fill:#ffda2d;fill-opacity:1"
             id="path82"
             d="m 0,-150.90401 c 0,0 125.245,48.03301 143.51801,104.27201 C 161.791,9.6070004 125.78,76.022003 88.698997,122.084 69.070999,146.466 27.240999,136.69099 -4.059,136.69099 c -28.629999,0 -67.305998,8.17901 -84.639997,-14.60699 C -124.501,75.021004 -161.791,9.6070004 -143.51801,-46.632 -125.245,-102.871 0,-150.90401 0,-150.90401 Z" />
          <path
             style="fill-opacity:0;stroke:#ffffff;stroke-width:0;stroke-linecap:butt;stroke-linejoin:miter;stroke-miterlimit:4;stroke-opacity:1"
             id="path84"
             d="m 0,-150.90401 c 0,0 125.245,48.03301 143.51801,104.27201 C 161.791,9.6070004 125.78,76.022003 88.698997,122.084 69.070999,146.466 27.240999,136.69099 -4.059,136.69099 c -28.629999,0 -67.305998,8.17901 -84.639997,-14.60699 C -124.501,75.021004 -161.791,9.6070004 -143.51801,-46.632 -125.245,-102.871 0,-150.90401 0,-150.90401 Z"
             stroke-miterlimit="4" />
        </g>
      </g>
      <g
         id="g96"
         style="display:block;opacity:0.99999994"
         transform="matrix(0.2421229,-0.66522723,0.72505742,0.26389933,390.10672,568.31213)">
        <g
           style="opacity:1"
           id="g94"
           transform="matrix(1.01853,0,0,1.61426,110.252,-115.346)">
          <path
             style="fill:#ffda2d;fill-opacity:1"
             id="path90"
             d="m 0,-150.90401 c 0,0 125.245,48.03301 143.51801,104.27201 C 161.791,9.6070004 125.78,76.022003 88.698997,122.084 69.070999,146.466 27.240999,136.69099 -4.059,136.69099 c -28.629999,0 -67.305998,8.17901 -84.639997,-14.60699 C -124.501,75.021004 -161.791,9.6070004 -143.51801,-46.632 -125.245,-102.871 0,-150.90401 0,-150.90401 Z" />
          <path
             style="fill-opacity:0;stroke:#ffffff;stroke-width:0;stroke-linecap:butt;stroke-linejoin:miter;stroke-miterlimit:4;stroke-opacity:1"
             id="path92"
             d="m 0,-150.90401 c 0,0 125.245,48.03301 143.51801,104.27201 C 161.791,9.6070004 125.78,76.022003 88.698997,122.084 69.070999,146.466 27.240999,136.69099 -4.059,136.69099 c -28.629999,0 -67.305998,8.17901 -84.639997,-14.60699 C -124.501,75.021004 -161.791,9.6070004 -143.51801,-46.632 -125.245,-102.871 0,-150.90401 0,-150.90401 Z"
             stroke-miterlimit="4" />
        </g>
      </g>
      <g
         id="g104"
         style="display:block;opacity:0.99999994"
         transform="matrix(0.69717801,-0.12285601,0.13390562,0.75988185,440.54645,424.33423)">
        <g
           style="opacity:1"
           id="g102"
           transform="matrix(1.01853,0,0,1.61426,110.252,-115.346)">
          <path
             style="fill:#ffda2d;fill-opacity:1"
             id="path98"
             d="m 0,-150.90401 c 0,0 125.245,48.03301 143.51801,104.27201 C 161.791,9.6070004 125.78,76.022003 88.698997,122.084 69.070999,146.466 27.240999,136.69099 -4.059,136.69099 c -28.629999,0 -67.305998,8.17901 -84.639997,-14.60699 C -124.501,75.021004 -161.791,9.6070004 -143.51801,-46.632 -125.245,-102.871 0,-150.90401 0,-150.90401 Z" />
          <path
             style="fill-opacity:0;stroke:#ffffff;stroke-width:0;stroke-linecap:butt;stroke-linejoin:miter;stroke-miterlimit:4;stroke-opacity:1"
             id="path100"
             d="m 0,-150.90401 c 0,0 125.245,48.03301 143.51801,104.27201 C 161.791,9.6070004 125.78,76.022003 88.698997,122.084 69.070999,146.466 27.240999,136.69099 -4.059,136.69099 c -28.629999,0 -67.305998,8.17901 -84.639997,-14.60699 C -124.501,75.021004 -161.791,9.6070004 -143.51801,-46.632 -125.245,-102.871 0,-150.90401 0,-150.90401 Z"
             stroke-miterlimit="4" />
        </g>
      </g>
    </g>
    <g
       id="g114"
       style="display:block;opacity:1"
       transform="matrix(1.00239,0,0,1.00239,540,540)">
      <g
         style="opacity:1"
         id="g112">
        <path
           style="fill:#725f57;fill-opacity:1"
           id="path108"
           d="m 0,-218 c 120.3142,0 218,97.6858 218,218 0,120.3142 -97.6858,218 -218,218 -120.3142,0 -218,-97.6858 -218,-218 0,-120.3142 97.6858,-218 218,-218 z" />
        <path
           style="fill-opacity:0;stroke:#ffffff;stroke-width:0;stroke-linecap:butt;stroke-linejoin:miter;stroke-miterlimit:1;stroke-opacity:1"
           id="path110"
           d="m 0,-218 c 120.3142,0 218,97.6858 218,218 0,120.3142 -97.6858,218 -218,218 -120.3142,0 -218,-97.6858 -218,-218 0,-120.3142 97.6858,-218 218,-218 z"
           stroke-miterlimit="1" />
      </g>
    </g>
  </g>
</svg>
