<?xml version="1.0" encoding="iso-8859-1"?>
<!-- Generator: Adobe Illustrator 19.0.0, SVG Export Plug-In . SVG Version: 6.00 Build 0)  -->
<svg xmlns="http://www.w3.org/2000/svg" xmlns:xlink="http://www.w3.org/1999/xlink" version="1.1" id="Capa_1" x="0px" y="0px" viewBox="0 0 501 501" style="enable-background:new 0 0 501 501;" xml:space="preserve" width="512" height="512">
<g>
	<path style="fill:#8AE8F5;" d="M489.974,252.393c1.958,135.694-105.612,246.595-241.306,248.58   c-52.11,0.762-100.553-14.752-140.583-41.779C102.377,455.34,99,448.862,99,441.974v-34.343C99,364.757,64.243,330,21.369,330h0   c-6.025,0-11.301-4.042-12.875-9.858c-5.587-20.64-8.55-42.358-8.493-64.779C0.347,119.756,109.672,10.849,245.279,11   C379.257,11.15,488.047,118.839,489.974,252.393z"/>
	<path style="fill:#6AA8BB;" d="M301.392,177.615L279,155.224L392.137,42.086l22.392,22.392L301.392,177.615z"/>
	<path style="fill:#EF3C54;" d="M449,44.385l-62.638,62.638c-7.81,7.81-20.474,7.81-28.284,0l-8.485-8.485   c-7.81-7.81-7.81-20.474,0-28.284L412.23,7.615c10.154-10.154,26.616-10.154,36.77,0l0,0C459.154,17.769,459.154,34.231,449,44.385   z"/>
	<path style="fill:#D43147;" d="M362.19,110.161c-1.466-0.852-2.857-1.883-4.112-3.139l-8.485-8.485   c-7.811-7.81-7.811-20.474,0-28.284L412.23,7.615c10.154-10.154,26.616-10.154,36.77,0v0c2.816,2.816,4.848,6.118,6.102,9.635   c-9.165-3.268-19.797-1.236-27.134,6.102L365.33,85.99C358.775,92.544,357.743,102.508,362.19,110.161z"/>
	<path style="fill:#C44775;" d="M445,140v30c0,5.523-4.477,10-10,10v50c0,93.888-76.112,170-170,170h-40   c-93.888,0-170-76.112-170-170v-50c-5.523,0-10-4.477-10-10v-30c0-5.523,4.477-10,10-10h380C440.523,130,445,134.477,445,140z"/>
	<path style="fill:#D95785;" d="M445,140v30c0,5.523-4.477,10-10,10v50c0,8.876-0.683,17.593-1.994,26.102   C402.85,283.382,362.867,300,319,300h-60c-66.052,0-123.292-37.676-151.431-92.705c-1.705-3.333,0.707-7.295,4.451-7.295H289   c5.743,0,10.356-4.841,9.978-10.666c-0.344-5.315-4.995-9.334-10.321-9.334H96.487H79c-5.523,0-10-4.477-10-10v-30   c0-5.523,4.477-10,10-10h356C440.523,130,445,134.477,445,140z"/>
	<path style="fill:#8AE8F5;" d="M429,320h-70c-11.046,0-20-8.954-20-20v-80h110v80C449,311.046,440.046,320,429,320z"/>
	<path style="fill:#DCFBFF;" d="M429,320h-40c-11.046,0-20-8.954-20-20v-80h80v80C449,311.046,440.046,320,429,320z"/>
	<path style="fill:#895348;" d="M449,390H339v-92.735l55.039-15.726c9.623-2.749,19.926-1.792,28.877,2.684L449,297.265V390z"/>
	<path style="fill:#9D6256;" d="M449,300c0,22.091-17.909,40-40,40h0c-22.091,0-40-17.909-40-40v-11.307l25.039-7.154   c9.623-2.749,19.926-1.792,28.877,2.684L449,297.265V300z"/>
	<path style="fill:#368A9C;" d="M459,210v20c0,5.523-4.477,10-10,10H339c-5.523,0-10-4.477-10-10v-20c0-22.091,17.909-40,40-40h50   C441.091,170,459,187.909,459,210z"/>
	<path style="fill:#4A99AF;" d="M459,210v20c0,5.523-4.477,10-10,10h-80c-5.523,0-10-4.477-10-10v-20c0-22.091,17.909-40,40-40h20   C441.091,170,459,187.909,459,210z"/>
	<path style="fill:#276372;" d="M389,200c0,5.523-4.477,10-10,10s-10-4.477-10-10c0-5.523,4.477-10,10-10S389,194.477,389,200z    M374,170h-5c-5.156,0-10.079,0.986-14.604,2.763c1.2,4.177,5.041,7.237,9.604,7.237C369.523,180,374,175.523,374,170z M409,190   c-5.523,0-10,4.477-10,10c0,5.523,4.477,10,10,10s10-4.477,10-10C419,194.477,414.523,190,409,190z M404,170h-20   c0,5.523,4.477,10,10,10S404,175.523,404,170z M419,170h-5c0,5.523,4.477,10,10,10c4.563,0,8.405-3.06,9.604-7.237   C429.079,170.986,424.156,170,419,170z"/>
	<path style="fill:#FCA20C;" d="M381,340v100c0,11.046-8.954,20-20,20H109.298C60.562,427.516,24.136,378.037,8.47,320.027   C8.648,320.022,8.821,320,9,320h352C372.046,320,381,328.954,381,340z"/>
	<path style="fill:#FFB23C;" d="M501,390L501,390c0,13.807-11.193,25-25,25h-95.656c-2.223,8.621-10.029,15-19.344,15H134   c-30.376,0-55-24.624-55-55v0c0-30.376,24.624-55,55-55h227c11.046,0,20,8.954,20,20v25h95C489.807,365,501,376.193,501,390z"/>
	<path style="fill:#FFF5F5;" d="M209,30c-5.523,0-10-4.477-10-10c0-5.523,4.477-10,10-10s10,4.477,10,10   C219,25.523,214.523,30,209,30z M219,80c-5.523,0-10,4.477-10,10c0,5.523,4.477,10,10,10s10-4.477,10-10   C229,84.477,224.523,80,219,80z M149,100c-5.523,0-10,4.477-10,10c0,5.523,4.477,10,10,10s10-4.477,10-10   C159,104.477,154.523,100,149,100z M249,60c-5.523,0-10,4.477-10,10c0,5.523,4.477,10,10,10s10-4.477,10-10   C259,64.477,254.523,60,249,60z M279,100c-5.523,0-10,4.477-10,10c0,5.523,4.477,10,10,10s10-4.477,10-10   C289,104.477,284.523,100,279,100z"/>
</g>















</svg>
