<?xml version="1.0" encoding="iso-8859-1"?>
<!-- Generator: Adobe Illustrator 19.0.0, SVG Export Plug-In . SVG Version: 6.00 Build 0)  -->
<svg xmlns="http://www.w3.org/2000/svg" xmlns:xlink="http://www.w3.org/1999/xlink" version="1.1" id="Capa_1" x="0px" y="0px" viewBox="0 0 501 501" style="enable-background:new 0 0 501 501;" xml:space="preserve" width="512" height="512">
<g>
	<path style="fill:#276372;" d="M495.5,256c0,135.31-109.69,245-245,245S5.5,391.31,5.5,256s109.69-245,245-245   S495.5,120.69,495.5,256z"/>
	<path style="fill:#368A9C;" d="M250.5,320l49.93,175.902C284.309,499.24,267.61,501,250.5,501s-33.809-1.76-49.93-5.098L250.5,320z    M23.242,164.335c-6.542,16.203-11.397,33.264-14.358,50.97l96.961-27.522L23.242,164.335z M73.774,425.672l80.667-144.613   L25.469,353.001C37.169,380.108,53.617,404.682,73.774,425.672z M478.585,166.371l-75.43,21.411l88.567,25.14   C488.863,196.805,484.43,181.234,478.585,166.371z M427.226,425.672c20.157-20.99,36.605-45.564,48.305-72.671l-128.972-71.942   L427.226,425.672z"/>
	<path style="fill:#F0A1BB;" d="M488.938,199.489l-85.783-11.708l79.309-10.824C484.971,184.317,487.131,191.835,488.938,199.489z    M18.903,175.916c-2.785,8.054-5.173,16.292-7.117,24.703l94.059-12.837L18.903,175.916z M225.964,499.781   c8.07,0.802,16.254,1.219,24.536,1.219s16.466-0.417,24.536-1.219L250.5,320L225.964,499.781z M442.836,407.768   c8.818-11.161,16.684-23.106,23.479-35.716l-119.756-90.994L442.836,407.768z M58.164,407.768l96.277-126.709L34.685,372.052   C41.48,384.662,49.346,396.608,58.164,407.768z"/>
	<path style="fill:#FCA20C;" d="M435.5,185c0,102.173-82.827,185-185,185s-185-82.827-185-185S148.327,0,250.5,0   S435.5,82.827,435.5,185z"/>
	<path style="fill:#FFB23C;" d="M420.5,220c-19.33,0-35-15.67-35-35s15.67-35,35-35c4.246,0,8.314,0.757,12.079,2.142   c-4.774-26.626-15.241-51.274-30.103-72.64c-1.683,3.635-4.022,7.042-7.02,10.039c-13.668,13.668-35.829,13.668-49.497,0   c-13.668-13.668-13.668-35.829,0-49.498c2.998-2.998,6.405-5.338,10.041-7.021C334.633,18.164,309.984,7.697,283.36,2.923   c1.384,3.765,2.14,7.832,2.14,12.077c0,19.33-15.67,35-35,35c-16.942,0-31.07-12.038-34.303-28.026   c-20.055,11.563-37.449,27.223-51.041,45.835c-0.682,7.926-4.049,15.666-10.115,21.731c-1.723,1.723-3.581,3.227-5.539,4.515   C139.248,115.547,133.5,139.6,133.5,165c0,1.875,0.039,3.741,0.101,5.602C139.092,158.456,151.305,150,165.5,150   c19.33,0,35,15.67,35,35s-15.67,35-35,35c-10.494,0-19.903-4.625-26.318-11.94c14.167,52.535,53.625,94.691,104.512,112.607   c2.202-0.434,4.476-0.667,6.805-0.667c8.461,0,16.22,3.002,22.271,7.999c8.384,1.313,16.976,2.001,25.729,2.001   c14.843,0,29.224-1.968,42.906-5.644c-8.89-13.575-7.374-31.969,4.554-43.896c13.668-13.668,35.829-13.668,49.497,0   c2.997,2.998,5.337,6.403,7.02,10.039c14.861-21.367,25.327-46.016,30.103-72.64C428.814,219.243,424.746,220,420.5,220z    M250.5,305c-19.33,0-35-15.67-35-35s15.67-35,35-35s35,15.67,35,35S269.83,305,250.5,305z M250.5,220c-19.33,0-35-15.67-35-35   s15.67-35,35-35s35,15.67,35,35S269.83,220,250.5,220z M250.5,135c-19.33,0-35-15.67-35-35s15.67-35,35-35s35,15.67,35,35   S269.83,135,250.5,135z M335.5,220c-19.33,0-35-15.67-35-35s15.67-35,35-35s35,15.67,35,35S354.83,220,335.5,220z"/>
	<path style="fill:#FFC3B0;" d="M250.5,160c13.807,0,25,11.193,25,25s-11.193,25-25,25c-13.807,0-25-11.193-25-25   S236.693,160,250.5,160z M140.5,185c0,13.807,11.193,25,25,25c13.807,0,25-11.193,25-25s-11.193-25-25-25   C151.693,160,140.5,171.193,140.5,185z M310.5,185c0,13.807,11.193,25,25,25c13.807,0,25-11.193,25-25s-11.193-25-25-25   C321.693,160,310.5,171.193,310.5,185z M225.5,270c0,13.807,11.193,25,25,25c13.807,0,25-11.193,25-25s-11.193-25-25-25   C236.693,245,225.5,256.193,225.5,270z M225.5,100c0,13.807,11.193,25,25,25c13.807,0,25-11.193,25-25s-11.193-25-25-25   C236.693,75,225.5,86.193,225.5,100z M105.5,185c0-13.807-11.193-25-25-25c-5.113,0-9.866,1.538-13.826,4.172   C65.908,171.011,65.5,177.957,65.5,185s0.407,13.989,1.174,20.828C70.634,208.462,75.387,210,80.5,210   C94.307,210,105.5,198.807,105.5,185z M229.673,1.174C227.038,5.134,225.5,9.887,225.5,15c0,13.807,11.193,25,25,25   s25-11.193,25-25c0-5.113-1.538-9.866-4.172-13.826C264.489,0.407,257.543,0,250.5,0S236.511,0.407,229.673,1.174z M395.5,185   c0,13.807,11.193,25,25,25c5.113,0,9.866-1.538,13.826-4.172c0.766-6.838,1.174-13.785,1.174-20.828s-0.407-13.989-1.174-20.828   c-3.96-2.634-8.713-4.172-13.826-4.172C406.693,160,395.5,171.193,395.5,185z M370.708,89.792c12.108,0,22.203-8.608,24.505-20.037   c-8.686-10.893-18.575-20.782-29.469-29.469c-11.429,2.302-20.037,12.398-20.037,24.505   C345.708,78.599,356.901,89.792,370.708,89.792z M395.214,300.245c-2.302-11.429-12.398-20.037-24.505-20.037   c-13.807,0-25,11.193-25,25c0,12.108,8.608,22.203,20.037,24.506C376.638,321.027,386.527,311.138,395.214,300.245z    M271.328,368.826c2.634-3.96,4.172-8.713,4.172-13.826c0-13.807-11.193-25-25-25s-25,11.193-25,25   c0,5.113,1.538,9.866,4.172,13.826c6.838,0.766,13.785,1.174,20.828,1.174S264.489,369.593,271.328,368.826z M105.786,69.755   c2.302,11.429,12.398,20.037,24.505,20.037c13.807,0,25-11.193,25-25c0-12.108-8.608-22.203-20.037-24.505   C124.362,48.973,114.473,58.862,105.786,69.755z M135.255,329.714c11.429-2.302,20.037-12.398,20.037-24.506   c0-13.807-11.193-25-25-25c-12.108,0-22.203,8.608-24.505,20.037C114.473,311.138,124.362,321.027,135.255,329.714z"/>
	<path style="fill:#FFCDBC;" d="M260,190.5c-8.284,0-15-6.716-15-15c0-7.217,5.099-13.24,11.889-14.673   c8.671,2.286,15.497,9.112,17.783,17.783C273.24,185.401,267.217,190.5,260,190.5z M189.673,178.611   c-2.286-8.671-9.112-15.497-17.783-17.783C165.099,162.26,160,168.283,160,175.5c0,8.284,6.716,15,15,15   C182.217,190.5,188.24,185.401,189.673,178.611z M359.673,178.611c-2.286-8.671-9.112-15.497-17.783-17.783   C335.099,162.26,330,168.283,330,175.5c0,8.284,6.716,15,15,15C352.217,190.5,358.24,185.401,359.673,178.611z M274.673,263.611   c-2.286-8.671-9.112-15.497-17.783-17.783C250.099,247.26,245,253.283,245,260.5c0,8.284,6.716,15,15,15   C267.217,275.5,273.24,270.401,274.673,263.611z M274.673,93.611c-2.286-8.671-9.112-15.497-17.783-17.783   C250.099,77.26,245,83.283,245,90.5c0,8.284,6.716,15,15,15C267.217,105.5,273.24,100.401,274.673,93.611z M124.792,55.292   c0,8.284,6.716,15,15,15c7.217,0,13.24-5.099,14.673-11.889c-2.286-8.671-9.112-15.497-17.783-17.783   c-1.103,0.233-2.154,0.598-3.153,1.058c-2.117,1.73-4.192,3.508-6.23,5.328C125.719,49.38,124.792,52.226,124.792,55.292z    M380.208,70.292c4.484,0,8.506-1.97,11.253-5.09c-6.474-7.61-13.553-14.689-21.163-21.163c-3.12,2.748-5.09,6.769-5.09,11.253   C365.208,63.576,371.924,70.292,380.208,70.292z M139.792,310.708c7.217,0,13.24-5.099,14.673-11.889   c-2.286-8.671-9.112-15.497-17.783-17.783c-6.791,1.433-11.889,7.456-11.889,14.673   C124.792,303.992,131.508,310.708,139.792,310.708z M246.03,0.057C245.371,1.745,245,3.578,245,5.5c0,8.284,6.716,15,15,15   c7.217,0,13.24-5.099,14.673-11.889c-0.707-2.683-1.851-5.187-3.348-7.437C264.488,0.407,257.542,0,250.5,0   C249.006,0,247.516,0.021,246.03,0.057z M274.673,348.611c-2.286-8.671-9.112-15.497-17.783-17.783   C250.099,332.26,245,338.283,245,345.5c0,8.284,6.716,15,15,15C267.217,360.5,273.24,355.401,274.673,348.611z M393.823,301.972   c0.46-0.999,0.825-2.051,1.058-3.153c-2.286-8.671-9.112-15.497-17.783-17.783c-6.791,1.433-11.889,7.456-11.889,14.673   c0,8.284,6.716,15,15,15c3.066,0,5.912-0.927,8.287-2.507C390.315,306.164,392.093,304.089,393.823,301.972z M86.889,160.827   C80.099,162.26,75,168.283,75,175.5c0,8.284,6.716,15,15,15c7.217,0,13.24-5.099,14.673-11.889   C102.387,169.939,95.561,163.113,86.889,160.827z M434.327,164.175c-2.25-1.497-4.754-2.64-7.437-3.348   C420.099,162.26,415,168.283,415,175.5c0,8.284,6.716,15,15,15c1.922,0,3.755-0.371,5.443-1.03c0.035-1.486,0.057-2.975,0.057-4.47   C435.5,177.958,435.093,171.012,434.327,164.175z"/>
	<path style="fill:#FFF5F5;" d="M90.724,255.027c-0.108,0.367-0.108,0.757,0,1.124l3.144,10.735   c0.444,1.517-0.964,2.926-2.481,2.481l-10.735-3.144c-0.367-0.107-0.757-0.107-1.124,0l-10.735,3.144   c-1.517,0.444-2.926-0.964-2.482-2.481l3.144-10.735c0.107-0.367,0.107-0.757,0-1.124l-3.144-10.734   c-0.444-1.518,0.964-2.926,2.482-2.482l10.735,3.145c0.367,0.107,0.757,0.107,1.124,0l10.735-3.145   c1.517-0.444,2.926,0.964,2.481,2.482L90.724,255.027z M303.868,203.114c0.444-1.517-0.964-2.926-2.481-2.481l-10.735,3.144   c-0.367,0.107-0.757,0.107-1.124,0l-10.735-3.144c-1.517-0.445-2.926,0.964-2.482,2.481l3.144,10.734   c0.107,0.367,0.107,0.757,0,1.125l-3.144,10.735c-0.444,1.517,0.964,2.926,2.482,2.481l10.735-3.144   c0.367-0.107,0.757-0.107,1.124,0l10.735,3.144c1.517,0.444,2.926-0.964,2.481-2.481l-3.144-10.735   c-0.108-0.367-0.108-0.757,0-1.125L303.868,203.114z M429.545,114.973c-0.107-0.367-0.107-0.757,0-1.125l3.144-10.734   c0.444-1.517-0.964-2.926-2.482-2.481l-10.735,3.144c-0.367,0.107-0.757,0.107-1.124,0l-10.735-3.144   c-1.517-0.445-2.926,0.964-2.481,2.481l3.144,10.734c0.108,0.367,0.108,0.757,0,1.125l-3.144,10.735   c-0.444,1.517,0.964,2.926,2.481,2.481l10.735-3.144c0.367-0.107,0.757-0.107,1.124,0l10.735,3.144   c1.517,0.444,2.926-0.964,2.482-2.481L429.545,114.973z"/>
</g>















</svg>
