<?xml version="1.0" encoding="iso-8859-1"?>
<!-- Generator: Adobe Illustrator 19.0.0, SVG Export Plug-In . SVG Version: 6.00 Build 0)  -->
<svg xmlns="http://www.w3.org/2000/svg" xmlns:xlink="http://www.w3.org/1999/xlink" version="1.1" id="Capa_1" x="0px" y="0px" viewBox="0 0 501 501" style="enable-background:new 0 0 501 501;" xml:space="preserve" width="512" height="512">
<g>
	<path style="fill:#9DC6D4;" d="M495.5,256c0,55.454-18.423,106.604-49.483,147.665c-44.728,59.129-309.009,76.339-351.359,41.389   C40.207,400.117,5.5,332.112,5.5,256c0-135.31,109.69-245,245-245S495.5,120.69,495.5,256z"/>
	<path style="fill:#C44775;" d="M350.5,20l-16.906,200l-13.932,164.82c-5.888,69.651-71,119.188-139.53,105.42   c-3.125-0.628-5.813-1.305-7.965-2.031c-28.659-9.665-54.944-24.487-77.755-43.362L75.406,220L58.5,20H350.5z"/>
	<path style="fill:#D95785;" d="M226.459,458L226.459,458c-49.201,0-90.203-37.682-94.347-86.708L102.417,20H350.5l-29.695,351.292   C316.661,420.318,275.659,458,226.459,458z"/>
	<path style="fill:#FF8F9D;" d="M349.5,30h-290c-8.284,0-15-6.716-15-15v0c0-8.284,6.716-15,15-15h290c8.284,0,15,6.716,15,15v0   C364.5,23.284,357.784,30,349.5,30z"/>
	<path style="fill:#FFA9B4;" d="M349.5,30h-246c-8.284,0-15-6.716-15-15v0c0-8.284,6.716-15,15-15l246,0c8.284,0,15,6.716,15,15v0   C364.5,23.284,357.784,30,349.5,30z"/>
	<path style="fill:#276372;" d="M311.977,289.141c-5.519,0.973-10.781-2.712-11.754-8.23l-17.507-99.286   c-6.577-2.404-11.737-8.134-13.041-15.527c-1.304-7.393,1.585-14.542,6.944-19.051l-1.063-6.026   c-0.973-5.518,2.711-10.781,8.23-11.754c5.518-0.973,10.781,2.712,11.754,8.23l1.063,6.026c6.577,2.405,11.737,8.134,13.041,15.527   c1.303,7.393-1.586,14.542-6.944,19.051l17.507,99.286C321.181,282.906,317.496,288.168,311.977,289.141z"/>
	<path style="fill:#029A64;" d="M353.333,278.407c0,16.569-17.909,30-40,30c-22.091,0-40-13.431-40-30s17.909-30,40-30   C335.425,248.407,353.333,261.839,353.333,278.407z"/>
	<path style="fill:#24BD87;" d="M353.333,278.407c0,12.868-10.805,23.84-25.979,28.101c-15.175-4.261-25.979-15.232-25.979-28.101   c0-12.868,10.805-23.84,25.979-28.101C342.528,254.567,353.333,265.539,353.333,278.407z"/>
	<path style="fill:#F05D22;" d="M434.5,355v50c0,2.761-2.239,5-5,5H197.167c-2.761,0-5-2.239-5-5v-50c0-2.761,2.239-5,5-5H429.5   C432.261,350,434.5,352.239,434.5,355z"/>
	<path style="fill:#FC703B;" d="M434.5,355v50c0,2.761-2.239,5-5,5h-200c-2.761,0-5-2.239-5-5v-50c0-2.761,2.239-5,5-5h200   C432.261,350,434.5,352.239,434.5,355z"/>
	<path style="fill:#9D6256;" d="M264.5,420L264.5,420c0,11.046-8.954,20-20,20h-52.333c-11.046,0-20-8.954-20-20v0   c0-11.046,8.954-20,20-20H244.5C255.546,400,264.5,408.954,264.5,420z"/>
	<path style="fill:#B57063;" d="M446.006,403.658c-10.005,13.227-21.322,25.403-33.756,36.342H224.5c-11.046,0-20-8.954-20-20l0,0   c0-11.046,8.954-20,20-20h210C438.788,400,442.75,401.361,446.006,403.658z"/>
	<path style="fill:#24BD87;" d="M439.833,348c0,15.464-11.432,28-25.533,28c-6.507,0-12.445-2.67-16.954-7.065   c-1.932-1.883-5.014-1.883-6.945,0c-4.509,4.395-10.447,7.065-16.954,7.065c-6.507,0-12.445-2.67-16.954-7.065   c-1.932-1.883-5.014-1.883-6.945,0c-4.509,4.395-10.447,7.065-16.954,7.065c-6.507,0-12.445-2.67-16.954-7.065   c-1.932-1.883-5.013-1.883-6.945,0C304.185,373.33,298.247,376,291.74,376c-6.507,0-12.445-2.67-16.954-7.065   c-1.932-1.883-5.014-1.883-6.945,0c-4.509,4.395-10.447,7.065-16.954,7.065c-6.507,0-12.445-2.67-16.954-7.065   c-1.932-1.883-5.014-1.883-6.945,0c-4.509,4.395-10.447,7.065-16.954,7.065c-14.102,0-25.533-12.536-25.533-28s11.432-28,25.533-28   c8.353,0,15.768,4.399,20.427,11.2c4.658-6.8,12.074-11.2,20.427-11.2c8.353,0,15.768,4.399,20.427,11.2   c4.658-6.8,12.074-11.2,20.427-11.2c8.353,0,15.768,4.399,20.427,11.2c4.658-6.8,12.074-11.2,20.427-11.2   c8.353,0,15.768,4.399,20.427,11.2c4.658-6.8,12.074-11.2,20.427-11.2c8.353,0,15.768,4.399,20.427,11.2   c4.658-6.8,12.073-11.2,20.427-11.2C428.402,320,439.833,332.536,439.833,348z"/>
	<path style="fill:#FFBD61;" d="M454.5,308v22c0,11.046-8.954,20-20,20H192.167c-11.046,0-20-8.954-20-20v-22   c0-11.046,8.954-20,20-20H434.5C445.546,288,454.5,296.954,454.5,308z M172.167,488.207V450c0-11.046,8.954-20,20-20h230.797   c-44.274,43.886-105.2,71-172.464,71C223.106,501,196.763,496.501,172.167,488.207z"/>
	<path style="fill:#FFC981;" d="M454.5,308v22c0,11.046-8.954,20-20,20h-210c-11.046,0-20-8.954-20-20v-22c0-11.046,8.954-20,20-20   h210C445.546,288,454.5,296.954,454.5,308z M250.5,501c-15.514,0-30.686-1.458-45.4-4.216c-0.378-1.536-0.6-3.132-0.6-4.784v-42   c0-11.046,8.954-20,20-20h198.464C378.69,473.886,317.764,501,250.5,501z"/>
</g>















</svg>
