<?xml version="1.0" encoding="iso-8859-1"?>
<!-- Generator: Adobe Illustrator 19.0.0, SVG Export Plug-In . SVG Version: 6.00 Build 0)  -->
<svg xmlns="http://www.w3.org/2000/svg" xmlns:xlink="http://www.w3.org/1999/xlink" version="1.1" id="Capa_1" x="0px" y="0px" viewBox="0 0 501 501" style="enable-background:new 0 0 501 501;" xml:space="preserve" width="512" height="512">
<g>
	<path style="fill:#84B8C8;" d="M478.626,324.5c-31.373,99.141-124.108,171-233.626,171c-52.305,0-100.776-16.397-140.567-44.322   c-4.27-2.997-6.766-7.928-6.766-13.145v-10.805c0-34.184-27.712-61.896-61.896-61.896h0c-4.473,0-8.591-2.51-10.572-6.521   C9.073,326.152,0,289.389,0,250.501C-0.001,115.335,111.737,4.481,246.899,5.507C362.102,6.382,458.381,86.768,483.571,194.5   C486.136,205.473,486.015,301.152,478.626,324.5z"/>
	<path style="fill:#FFE2BD;" d="M435.613,454.5L435.613,454.5c-23.995,0-46.062-13.143-57.49-34.242L331.671,334.5H259h-67.329   l-46.452,85.758c-8.503,15.699-22.898,26.988-39.593,31.741c-34.396-23.836-62.395-56.244-80.901-94.145L36.671,214.5v0   c0-66.274,53.726-120,120-120H259h107.671c66.274,0,120,53.726,120,120v0l14.099,169.188   C503.946,421.807,473.865,454.5,435.613,454.5z"/>
	<path style="fill:#FFD69E;" d="M145.728,414.5c0.883,0,1.763-0.023,2.641-0.059l-3.151,5.817   c-8.503,15.699-22.898,26.988-39.593,31.741c-34.396-23.836-62.395-56.244-80.901-94.145L36.671,214.5v0   c0-53.696,35.269-99.15,83.904-114.471c-16.217,20.462-25.904,46.334-25.904,74.471v0L80.572,343.688   C77.395,381.807,107.477,414.5,145.728,414.5L145.728,414.5z M493.613,414.5L493.613,414.5c-23.995,0-46.062-13.143-57.49-34.242   l-37.942-70.047c-5.244-9.681-15.369-15.711-26.379-15.711H190.667L169,334.5h162.671l46.452,85.758   c11.428,21.098,33.495,34.242,57.49,34.242h0c27.304,0,50.435-16.663,60.289-40.061C495.141,414.465,494.382,414.5,493.613,414.5z"/>
	<path style="fill:#FFC981;" d="M211.671,199.5c0,41.421-33.579,75-75,75s-75-33.579-75-75s33.579-75,75-75   S211.671,158.079,211.671,199.5z M386.671,134.5c-35.898,0-65,29.101-65,65s29.102,65,65,65s65-29.101,65-65   S422.569,134.5,386.671,134.5z"/>
	<path style="fill:#029A64;" d="M181.671,199.5c0,24.853-20.147,45-45,45s-45-20.147-45-45s20.147-45,45-45   S181.671,174.647,181.671,199.5z"/>
	<path style="fill:#0AB174;" d="M181.671,199.5c0,20.088-13.165,37.095-31.335,42.881C132.165,236.595,119,219.588,119,199.5   c0-20.088,13.165-37.095,31.335-42.881C168.506,162.404,181.671,179.412,181.671,199.5z"/>
	<path style="fill:#81D4AE;" d="M146.403,226.973c1.953,3.333-0.451,7.527-4.314,7.527h-10.837c-3.863,0-6.267-4.194-4.314-7.527   l5.418-9.25c1.931-3.297,6.697-3.297,8.629,0L146.403,226.973z M164.143,189.767l-9.25,5.419c-3.297,1.931-3.297,6.697,0,8.629   l9.25,5.419c3.333,1.953,7.527-0.451,7.527-4.314v-10.837C171.671,190.218,167.477,187.815,164.143,189.767z M118.448,195.186   l-9.25-5.419c-3.333-1.953-7.527,0.451-7.527,4.314v10.837c0,3.863,4.194,6.267,7.527,4.314l9.25-5.419   C121.745,201.883,121.745,197.117,118.448,195.186z M142.089,164.5h-10.837c-3.863,0-6.267,4.194-4.314,7.527l5.418,9.25   c1.931,3.297,6.697,3.297,8.629,0l5.418-9.25C148.356,168.694,145.952,164.5,142.089,164.5z"/>
	<path style="fill:#D43147;" d="M406.671,164.5c0,11.046-8.954,20-20,20c-11.046,0-20-8.954-20-20s8.954-20,20-20   C397.716,144.5,406.671,153.454,406.671,164.5z M386.671,214.5c-11.046,0-20,8.954-20,20s8.954,20,20,20c11.046,0,20-8.954,20-20   S397.716,214.5,386.671,214.5z M351.671,179.5c-11.046,0-20,8.954-20,20s8.954,20,20,20c11.046,0,20-8.954,20-20   S362.716,179.5,351.671,179.5z M421.671,179.5c-11.046,0-20,8.954-20,20s8.954,20,20,20s20-8.954,20-20   S432.716,179.5,421.671,179.5z"/>
	<path style="fill:#EF3C54;" d="M406.671,164.5c0,8.928-5.851,16.487-13.927,19.058c-8.076-2.571-13.927-10.13-13.927-19.058   c0-8.928,5.851-16.487,13.927-19.058C400.82,148.013,406.671,155.572,406.671,164.5z M392.744,215.442   c-8.076,2.571-13.927,10.13-13.927,19.058c0,8.928,5.851,16.487,13.927,19.058c8.076-2.571,13.927-10.13,13.927-19.058   C406.671,225.572,400.82,218.013,392.744,215.442z M357.744,180.442c-8.076,2.571-13.927,10.13-13.927,19.058   c0,8.928,5.851,16.487,13.927,19.058c8.076-2.571,13.927-10.13,13.927-19.058C371.671,190.572,365.82,183.013,357.744,180.442z    M427.744,180.442c-8.076,2.571-13.927,10.13-13.927,19.058c0,8.928,5.851,16.487,13.927,19.058   c8.076-2.571,13.927-10.13,13.927-19.058C441.671,190.572,435.82,183.013,427.744,180.442z"/>
	<path style="fill:#276372;" d="M209.955,296.216c15.621,15.621,15.621,40.948,0,56.569s-40.948,15.621-56.569,0   s-15.621-40.948,0-56.569S194.334,280.595,209.955,296.216z M313.386,296.216c-15.621,15.621-15.621,40.948,0,56.569   s40.948,15.621,56.569,0s15.621-40.948,0-56.569S329.007,280.595,313.386,296.216z"/>
	<path style="fill:#368A9C;" d="M207.936,294.328c17.614,15.396,18.287,42.189,2.019,58.456c-2.761,2.761-5.825,5.031-9.085,6.813   c-3.493,1.91-7.834,1.257-10.65-1.558h0c-4.267-4.267-3.167-11.364,2.111-14.289c1.755-0.973,3.406-2.204,4.896-3.694   c8.92-8.92,8.579-23.594-1.023-32.074c-8.503-7.509-21.614-7.205-29.786,0.664c-1.687,1.624-3.057,3.449-4.111,5.4   c-2.821,5.222-9.979,6.101-14.176,1.904h0c-2.839-2.839-3.448-7.212-1.513-10.731c2.215-4.028,5.176-7.756,8.888-10.978   C170.441,281.277,193.045,281.312,207.936,294.328z M315.506,294.241c-3.712,3.222-6.673,6.949-8.888,10.978   c-1.935,3.519-1.327,7.891,1.513,10.731l0,0c4.197,4.197,11.355,3.318,14.176-1.904c1.054-1.951,2.424-3.776,4.111-5.4   c8.172-7.869,21.282-8.173,29.786-0.664c9.602,8.48,9.944,23.154,1.023,32.074c-1.49,1.49-3.14,2.721-4.896,3.694   c-5.278,2.926-6.378,10.022-2.111,14.289h0c2.815,2.815,7.156,3.468,10.65,1.558c3.26-1.783,6.324-4.053,9.085-6.813   c16.267-16.267,15.594-43.06-2.019-58.456C353.045,281.312,330.441,281.277,315.506,294.241z"/>
</g>















</svg>
