<?xml version="1.0" encoding="iso-8859-1"?>
<!-- Generator: Adobe Illustrator 19.0.0, SVG Export Plug-In . SVG Version: 6.00 Build 0)  -->
<svg xmlns="http://www.w3.org/2000/svg" xmlns:xlink="http://www.w3.org/1999/xlink" version="1.1" id="Capa_1" x="0px" y="0px" viewBox="0 0 501 501" style="enable-background:new 0 0 501 501;" xml:space="preserve" width="512" height="512">
<g>
	<path style="fill:#029A64;" d="M490,250.5c0,135.31-109.69,245-245,245S0,385.81,0,250.5s109.69-245,245-245S490,115.19,490,250.5z   "/>
	<path style="fill:#8AE8F5;" d="M99,80.5h382c11.046,0,20,8.954,20,20v280c0,11.046-8.954,20-20,20H99c-11.046,0-20-8.954-20-20   v-280C79,89.454,87.954,80.5,99,80.5z"/>
	<path style="fill:#DCFBFF;" d="M481,80.5H129c-11.046,0-20,8.954-20,20v280c0,11.045,8.954,20,20,20h352c11.046,0,20-8.955,20-20   v-280C501,89.454,492.046,80.5,481,80.5z M289,102c-4.142,0-7.5-3.358-7.5-7.5s3.358-7.5,7.5-7.5s7.5,3.358,7.5,7.5   S293.142,102,289,102z"/>
	<path style="fill:#EF3C54;" d="M117.009,110.5h345.982c5.523,0,10,4.477,10,10v210c0,5.523-4.477,10-10,10H117.009   c-5.523,0-10-4.477-10-10v-210C107.009,114.977,111.486,110.5,117.009,110.5z"/>
	<path style="fill:#B6273C;" d="M146,165.5h-10c-5.523,0-10-4.477-10-10v-10c0-5.523,4.477-10,10-10h10c5.523,0,10,4.477,10,10v10   C156,161.023,151.523,165.5,146,165.5z M156,205.5v-10c0-5.523-4.477-10-10-10h-10c-5.523,0-10,4.477-10,10v10   c0,5.523,4.477,10,10,10h10C151.523,215.5,156,211.023,156,205.5z M156,255.5v-10c0-5.523-4.477-10-10-10h-10   c-5.523,0-10,4.477-10,10v10c0,5.523,4.477,10,10,10h10C151.523,265.5,156,261.023,156,255.5z M156,305.5v-10   c0-5.523-4.477-10-10-10h-10c-5.523,0-10,4.477-10,10v10c0,5.523,4.477,10,10,10h10C151.523,315.5,156,311.023,156,305.5z    M449,155.5v-10c0-5.523-4.477-10-10-10h-10c-5.523,0-10,4.477-10,10v10c0,5.523,4.477,10,10,10h10   C444.523,165.5,449,161.023,449,155.5z M449,205.5v-10c0-5.523-4.477-10-10-10h-10c-5.523,0-10,4.477-10,10v10   c0,5.523,4.477,10,10,10h10C444.523,215.5,449,211.023,449,205.5z M449,255.5v-10c0-5.523-4.477-10-10-10h-10   c-5.523,0-10,4.477-10,10v10c0,5.523,4.477,10,10,10h10C444.523,265.5,449,261.023,449,255.5z M449,305.5v-10   c0-5.523-4.477-10-10-10h-10c-5.523,0-10,4.477-10,10v10c0,5.523,4.477,10,10,10h10C444.523,315.5,449,311.023,449,305.5z"/>
	<path style="fill:#FA7786;" d="M368,225.5c0,43.078-34.922,78-78,78s-78-34.922-78-78s34.922-78,78-78S368,182.422,368,225.5z"/>
	<path style="fill:#FFE2BD;" d="M292.945,172.641l12.898,26.135c0.478,0.969,1.403,1.641,2.473,1.797l28.842,4.191   c2.694,0.391,3.77,3.702,1.82,5.603l-20.87,20.343c-0.774,0.755-1.127,1.842-0.945,2.907l4.927,28.725   c0.46,2.683-2.356,4.729-4.766,3.463l-25.797-13.562c-0.957-0.503-2.1-0.503-3.057,0l-25.797,13.562   c-2.41,1.267-5.226-0.779-4.766-3.463l4.927-28.725c0.183-1.066-0.171-2.153-0.945-2.907l-20.87-20.343   c-1.949-1.9-0.874-5.211,1.82-5.603l28.842-4.191c1.07-0.155,1.995-0.827,2.473-1.797l12.898-26.135   C288.259,170.2,291.741,170.2,292.945,172.641z"/>
	<path style="fill:#6AA8BB;" d="M31.369,370.5H279v50H68.594C54.17,405.536,41.638,388.742,31.369,370.5z"/>
	<path style="fill:#9DC6D4;" d="M274,370.5h217c5.523,0,10,4.477,10,10v10c0,16.569-13.431,30-30,30H274c-13.807,0-25-11.193-25-25   v0C249,381.693,260.193,370.5,274,370.5z"/>
	<path style="fill:#6AA8BB;" d="M479,405.5c0,2.761-2.239,5-5,5h-55c-2.761,0-5-2.239-5-5c0-2.762,2.239-5,5-5h55   C476.761,400.5,479,402.738,479,405.5z M419,390.5h55c2.761,0,5-2.239,5-5c0-2.762-2.239-5-5-5h-55c-2.761,0-5,2.238-5,5   C414,388.261,416.239,390.5,419,390.5z M284,380.5c-8.284,0-15,6.716-15,15s6.716,15,15,15s15-6.716,15-15S292.284,380.5,284,380.5   z M389,385.5h-20c-5.523,0-10,4.477-10,10c0,5.522,4.477,10,10,10h20c5.523,0,10-4.478,10-10C399,389.977,394.523,385.5,389,385.5z    M339,385.5h-20c-5.523,0-10,4.477-10,10c0,5.522,4.477,10,10,10h20c5.523,0,10-4.478,10-10C349,389.977,344.523,385.5,339,385.5z"/>
	<path style="fill:#368A9C;" d="M159,370.5L159,370.5h80l0,0c0,8.284-6.716,15-15,15h-50C165.716,385.5,159,378.784,159,370.5z"/>
	<path style="fill:#FFD69E;" d="M62.82,363.102c-5.858,5.858-15.355,5.858-21.213,0c-4.038,4.038-9.805,5.291-14.917,3.762   c0.902,1.123,1.647,2.378,2.199,3.732c1.735-0.701,3.626-1.096,5.611-1.096c8.284,0,15,6.716,15,15s-6.716,15-15,15   c0,8.284-6.716,15-15,15s-15-6.716-15-15c0-3.788,1.415-7.237,3.73-9.877C3.351,387.148,0,382.096,0,376.25c0-8.284,6.716-15,15-15   c1.498,0,2.942,0.226,4.307,0.635c-4.741-5.89-4.382-14.528,1.087-19.997c2.678-2.678,6.118-4.117,9.622-4.346   c-1.7-5.201-0.497-11.143,3.636-15.276c5.858-5.858,15.355-5.858,21.213,0c4.442,4.442,5.508,10.975,3.213,16.429   c1.722,0.731,3.339,1.789,4.743,3.193C68.677,347.746,68.678,357.244,62.82,363.102z"/>
	<path style="fill:#FFF5F5;" d="M163.25,384.5c0,8.284-6.716,15-15,15c0,8.284-6.716,15-15,15s-15-6.716-15-15   c0-3.788,1.415-7.237,3.73-9.877c-4.879-2.475-8.23-7.527-8.23-13.373c0-8.284,6.716-15,15-15c6.282,0,11.655,3.866,13.889,9.346   c1.735-0.701,3.626-1.096,5.611-1.096C156.534,369.5,163.25,376.216,163.25,384.5z M50.5,369.5c-1.986,0-3.877,0.395-5.611,1.096   c-1.009-2.476-2.663-4.616-4.747-6.225c-5.375,4.147-12.904,4.147-18.28,0.003C18.303,367.116,16,371.409,16,376.25   c0,5.846,3.351,10.897,8.23,13.373c-2.316,2.64-3.73,6.09-3.73,9.877c0,8.284,6.716,15,15,15s15-6.716,15-15   c8.284,0,15-6.716,15-15S58.784,369.5,50.5,369.5z"/>
	<path style="fill:#FFD69E;" d="M125.25,412.173c-2.317,1.466-5.055,2.327-8,2.327c-8.284,0-15-6.716-15-15   c0-3.788,1.415-7.237,3.73-9.877c-1.69-0.857-3.191-2.03-4.439-3.432c-2.085-0.718-4.048-1.893-5.712-3.557   c-2.678-2.678-4.117-6.118-4.346-9.622c-5.201,1.7-11.142,0.498-15.276-3.636c-5.858-5.857-5.858-15.355,0-21.213   c4.442-4.442,10.975-5.508,16.429-3.212c0.731-1.722,1.789-3.338,3.193-4.743c5.858-5.858,15.355-5.858,21.213,0   c5.858,5.858,5.858,15.355,0,21.213c0.212,0.212,2.8,2.771,2.371,3.113c3.316,5.737,2.536,13.192-2.371,18.1   c-0.404,0.404-0.829,0.774-1.266,1.123c1.456,2.503,3.61,4.551,6.203,5.866c-2.316,2.64-3.73,6.09-3.73,9.877   C118.25,404.839,121.048,409.515,125.25,412.173z M177.043,373.645c-5.858-5.858-15.355-5.858-21.213,0   c-1.404,1.404-2.462,3.02-3.193,4.742c-5.454-2.295-11.987-1.23-16.429,3.212c-5.858,5.858-5.858,15.355,0,21.213   c4.134,4.133,10.075,5.336,15.276,3.636c0.229,3.504,1.668,6.944,4.346,9.622c5.858,5.858,15.355,5.858,21.213,0   c5.858-5.858,5.858-15.355,0-21.213C182.901,389,182.901,379.502,177.043,373.645z M82.363,405.718   c-3.357-2.787-5.144-6.644-5.402-10.583c-5.645,1.845-12.163,0.271-16.294-4.759c-2.968-3.614-3.951-8.372-2.985-12.759   c-0.016-0.007-0.031-0.016-0.047-0.022c-2.661,0.604-5.191,1.932-7.263,4.004c-5.858,5.858-5.858,15.355,0,21.213   c4.134,4.133,10.075,5.336,15.276,3.636c0.229,3.504,1.668,6.944,4.346,9.622c5.858,5.858,15.355,5.858,21.213,0   c2.082-2.083,3.41-4.627,4.012-7.303C90.794,409.75,85.991,408.729,82.363,405.718z"/>
	<path style="fill:#FFF5F5;" d="M105.073,386.962c3.386,6.191,2.091,14.261-3.908,19.001c-5.477,4.327-13.43,4.212-18.802-0.245   c-3.357-2.787-5.144-6.644-5.402-10.583c-5.645,1.845-12.163,0.271-16.294-4.759c-2.968-3.614-3.951-8.372-2.985-12.759   c-1.729-0.731-3.353-1.792-4.762-3.202c-5.858,5.858-15.355,5.858-21.213,0c-5.858-5.857-5.858-15.355,0-21.213   c2.678-2.678,6.118-4.117,9.622-4.347c-1.7-5.2-0.497-11.142,3.636-15.275c5.858-5.858,15.355-5.858,21.213,0   c4.442,4.442,5.508,10.975,3.213,16.429c1.373,0.583,2.673,1.383,3.857,2.392c-2.608,5.559-1.633,12.382,2.959,16.975   c0.284,0.284,0.579,0.551,0.879,0.808c4.07,3.474,9.554,4.412,14.397,2.828c0.229,3.504,1.668,6.944,4.346,9.622   C98.411,385.215,101.7,386.656,105.073,386.962z M128.357,328.894c-5.858-5.858-15.355-5.858-21.213,0   c-1.404,1.404-2.462,3.02-3.193,4.742c-5.454-2.295-11.987-1.23-16.429,3.212c-5.858,5.858-5.858,15.355,0,21.213   c4.133,4.133,10.075,5.336,15.276,3.636c0.229,3.504,1.668,6.944,4.346,9.622c5.858,5.858,15.355,5.858,21.213,0   c5.858-5.858,5.858-15.355,0-21.213C134.214,344.249,134.214,334.751,128.357,328.894z M188.357,362.331   c-5.858-5.858-15.355-5.858-21.213,0c-1.404,1.404-2.462,3.021-3.193,4.743c-5.454-2.295-11.987-1.23-16.429,3.212   c-5.858,5.858-5.858,15.355,0,21.213c4.133,4.133,10.075,5.336,15.276,3.636c0.229,3.504,1.668,6.944,4.346,9.622   c5.858,5.858,15.355,5.858,21.213,0c5.858-5.857,5.858-15.355,0-21.213C194.214,377.686,194.214,368.189,188.357,362.331z"/>
	<path style="fill:#FCA20C;" d="M132.75,474.5h-70c-33.137,0-60-26.863-60-60v-15c0-2.761,2.239-5,5-5h180c2.761,0,5,2.239,5,5v15   C192.75,447.637,165.887,474.5,132.75,474.5z"/>
	<path style="fill:#FFB23C;" d="M132.75,474.5h-48c-33.137,0-60-26.863-60-60v-15c0-2.761,2.239-5,5-5h158c2.761,0,5,2.239,5,5v15   C192.75,447.637,165.887,474.5,132.75,474.5z"/>
	<path style="fill:#FFD69E;" d="M162.011,447.521c5.858,5.858,5.858,15.355,0,21.213c5.858,5.858,5.858,15.355,0,21.213   c-5.858,5.858-15.355,5.858-21.213,0c-2.678-2.678-4.117-6.118-4.346-9.622c-5.201,1.7-11.142,0.497-15.276-3.636   c-5.858-5.858-5.858-15.355,0-21.213c4.442-4.442,10.975-5.508,16.429-3.212c0.731-1.722,1.789-3.338,3.193-4.743   C146.655,441.663,156.153,441.663,162.011,447.521z"/>
	<path style="fill:#FFF5F5;" d="M173.325,436.207c5.858,5.858,5.858,15.355,0,21.213c5.858,5.858,5.858,15.355,0,21.213   c-5.858,5.858-15.355,5.858-21.213,0c-2.678-2.678-4.117-6.118-4.346-9.622c-5.201,1.7-11.142,0.497-15.276-3.636   c-5.858-5.858-5.858-15.355,0-21.213c4.442-4.442,10.975-5.508,16.429-3.212c0.731-1.722,1.789-3.338,3.193-4.742   C157.969,430.349,167.467,430.349,173.325,436.207z"/>
</g>















</svg>
