<?xml version="1.0" encoding="iso-8859-1"?>
<!-- Generator: Adobe Illustrator 19.0.0, SVG Export Plug-In . SVG Version: 6.00 Build 0)  -->
<svg xmlns="http://www.w3.org/2000/svg" xmlns:xlink="http://www.w3.org/1999/xlink" version="1.1" id="Capa_1" x="0px" y="0px" viewBox="0 0 501.005 501.005" style="enable-background:new 0 0 501.005 501.005;" xml:space="preserve" width="512" height="512">
<g>
	<path style="fill:#C44775;" d="M490.003,256.005c0,94.702-53.737,176.843-132.376,217.624   c-33.721,17.486-78.516,20.876-119.124,20.876c-135.31,0-229.572-103.19-229.572-238.5c0-40.608,0.956-78.862,18.443-112.582   c40.78-78.64,122.927-132.418,217.629-132.418C380.312,11.005,490.003,120.695,490.003,256.005z"/>
	<path style="fill:#FFC981;" d="M386.547,334.705c-1.524,3.121-2.324,6.54-2.093,10.006c0.359,5.386,0.549,10.818,0.549,16.294   c0,40.608-9.89,78.903-27.376,112.624c-33.722,17.487-72.017,27.377-112.626,27.376C109.463,501.004,0.002,391.54,0.003,256.003   c0-40.608,9.89-78.901,27.376-112.622c6.223-3.227,12.603-6.193,19.123-8.887c3.573-1.476,6.575-3.993,8.838-7.127   c3.902-5.403,10.246-8.923,17.421-8.923c2.636,0,5.16,0.477,7.492,1.346c3.616,1.349,7.502,1.773,11.286,1.013   c15.665-3.146,31.871-4.799,48.463-4.799c114.723,0,211.017,78.856,237.667,185.319c0.818,3.268,2.59,6.181,4.933,8.602   c3.807,3.935,6.151,9.296,6.151,15.204C388.753,328.565,387.959,331.814,386.547,334.705z"/>
	<path style="fill:#FFD69E;" d="M382.602,309.926c3.807,3.936,6.151,9.295,6.151,15.204c0,3.435-0.794,6.684-2.206,9.575   c-1.524,3.121-2.324,6.54-2.093,10.005c0.359,5.386,0.549,10.818,0.549,16.294c0,32.829-6.466,64.144-18.181,92.753   c-30.643,10.643-67.012,12.962-100.534,12.962c-135.31,0-229.572-103.19-229.572-238.5c0-33.353,0.653-65.116,10.573-94.086   c3.226-1.508,5.959-3.867,8.052-6.767c3.902-5.404,10.246-8.923,17.421-8.923c2.636,0,5.16,0.477,7.492,1.346   c3.616,1.349,7.502,1.773,11.286,1.013c15.666-3.146,31.871-4.798,48.463-4.798c114.723,0,211.017,78.856,237.667,185.319   C378.487,304.592,380.259,307.505,382.602,309.926z"/>
	<path style="fill:#FC703B;" d="M312.11,472.386c-5.397,8.326-11.377,16.239-17.892,23.673c-15.899,3.242-32.358,4.947-49.215,4.947   c-135.238,0-245.001-109.765-245-245.003c0-16.856,1.705-33.314,4.947-49.212c30.341-26.592,68.593-44.375,110.768-49.355   c4.834-0.571,9.789,0.426,13.84,3.124c3.742,2.492,8.236,3.946,13.07,3.946c4.695,0,9.069-1.371,12.745-3.734   c3.961-2.546,8.774-3.403,13.437-2.747c99.578,14.004,176.193,99.541,176.193,202.981c0,24.318-4.244,47.641-12.019,69.282   c-1.425,3.967-4.264,7.213-7.795,9.516c-5.982,3.903-9.937,10.651-9.937,18.327c0,0.528,0.019,1.051,0.056,1.569   C315.629,464.173,314.549,468.622,312.11,472.386z"/>
	<path style="fill:#F05D22;" d="M177.692,384.553l112.313,112.313c-8.186,1.52-16.514,2.636-24.964,3.32L151.303,386.447   c-2.722-2.722-7.369-1.476-8.365,2.242l-21.191,79.085c-6.059-3.534-11.953-7.317-17.666-11.342l17.297-64.554   c1.992-7.436-4.812-14.24-12.247-12.248l-64.554,17.297c-4.025-5.713-7.808-11.607-11.342-17.666l79.085-21.19   c3.718-0.997,4.963-5.644,2.241-8.365L0.822,235.967c0.684-8.45,1.8-16.778,3.32-24.964l118.437,118.437   c5.443,5.443,14.738,2.953,16.73-4.483l44.036-164.345c6.563,1.413,13.009,3.138,19.322,5.163l-46.281,172.723   c-0.996,3.718,2.406,7.12,6.124,6.124l172.723-46.281c2.025,6.313,3.75,12.759,5.163,19.322l-155.98,41.795   C173.263,362.446,169.527,376.388,177.692,384.553z"/>
	<path style="fill:#D43147;" d="M249.003,280.005c0,16.569-13.431,30-30,30s-30-13.431-30-30s13.431-30,30-30   S249.003,263.437,249.003,280.005z M67.761,403.488c-5.538,0-10.708,1.57-15.096,4.283c11.605,14.688,24.861,28.006,39.48,39.693   c2.763-4.416,4.366-9.632,4.366-15.226C96.511,416.36,83.64,403.488,67.761,403.488z M72.761,188.174   c-15.878,0-28.75,12.872-28.75,28.75s12.872,28.75,28.75,28.75s28.75-12.872,28.75-28.75S88.639,188.174,72.761,188.174z    M232.835,363.214c-13.807,0-25,11.193-25,25c0,13.807,11.193,25,25,25c13.807,0,25-11.193,25-25   C257.835,374.407,246.642,363.214,232.835,363.214z"/>
	<path style="fill:#FFD69E;" d="M493.914,201.488l-261.321,79.401c-7.65,2.325-14.8-4.825-12.475-12.475L299.52,7.094   c1.508-4.963,6.559-7.938,11.637-6.881c10.084,2.1,19.938,4.825,29.524,8.126c3.788,1.304,7.891,1.629,11.753,0.563   c1.667-0.46,3.421-0.708,5.235-0.708c7.779,0,14.505,4.482,17.751,11.003c1.807,3.63,4.598,6.663,8.107,8.694   c59.283,34.321,102.849,92.769,117.261,161.925C501.849,194.908,498.89,199.976,493.914,201.488z"/>
	<path style="fill:#FFC981;" d="M247.055,276.495l-14.462,4.394c-7.65,2.325-14.8-4.825-12.475-12.475L299.52,7.094   c1.512-4.976,6.581-7.935,11.672-6.874c4.983,1.039,9.907,2.237,14.774,3.573c-0.468,0.74-0.849,1.549-1.115,2.425l-79.402,261.321   C244.438,270.866,245.221,274.096,247.055,276.495z"/>
	<path style="fill:#FFB23C;" d="M403.107,229.079c-2.438,0.741-4.104,2.989-4.104,5.536v0c0,6.635-4.158,12.71-10.491,14.689   c-3.404,1.064-6.645,0.843-9.509-0.171v5.872c0,8.837-7.641,15.889-16.677,14.909c-7.672-0.832-13.323-7.616-13.323-15.333v0   c0-4.51-4.356-7.739-8.671-6.428l-107.738,32.736c-7.65,2.325-14.8-4.825-12.475-12.475l73.041-240.387   c62.467,15.221,115.542,54.389,148.968,107.227c2.702,4.271,3.947,9.382,3.12,14.368c-0.175,1.052-0.266,2.133-0.266,3.235   c0,7.588,4.266,14.17,10.528,17.499c4.314,2.294,7.59,6.137,9.285,10.719c3.22,8.702,5.961,17.636,8.187,26.772L403.107,229.079z"/>
	<path style="fill:#FCA20C;" d="M249.06,275.886l-16.467,5.003c-7.65,2.325-14.8-4.825-12.475-12.475l73.041-240.387   c7.844,1.912,15.537,4.208,23.065,6.854L246.14,265.535C244.915,269.568,246.335,273.446,249.06,275.886z"/>
	<path style="fill:#FC703B;" d="M309.089,160.685c12.184,13.746,11.695,34.78-1.466,47.941   c-13.161,13.161-34.195,13.649-47.941,1.466c-0.866-0.768-0.913-2.109-0.094-2.928l46.573-46.573   C306.981,159.772,308.322,159.819,309.089,160.685z M411.866,130.009c-18.335,1.104-32.863,16.323-32.863,34.936   s14.528,33.832,32.863,34.936c1.156,0.069,2.137-0.846,2.137-2.003v-65.865C414.003,130.855,413.021,129.939,411.866,130.009z"/>
	<path style="fill:#F05D22;" d="M147.505,231.576l-16.724,63.707c-0.294,1.12-1.476,1.756-2.576,1.395   c-17.454-5.724-27.641-24.133-22.915-42.135c4.726-18.002,22.642-29.034,40.657-25.446   C147.083,229.323,147.799,230.457,147.505,231.576z M281.14,350.009c-1.156-0.07-2.137,0.846-2.137,2.003v65.865   c0,1.158,0.981,2.073,2.137,2.003c18.335-1.104,32.863-16.324,32.863-34.936S299.474,351.113,281.14,350.009z M160.716,450.591   c-0.819-0.818-2.16-0.771-2.928,0.095c-7.753,8.747-10.366,20.444-7.856,31.187c18.277,7.702,37.684,13.253,57.903,16.33   c-0.072-0.379-0.251-0.743-0.546-1.038L160.716,450.591z M9.254,321.384c-0.111,0.111-0.214,0.227-0.323,0.339   c3.475,12.511,7.917,24.619,13.242,36.239l35.116-35.116c0.818-0.819,0.772-2.16-0.095-2.928   C43.449,307.734,22.415,308.223,9.254,321.384z"/>
	<path style="fill:#D43147;" d="M339.003,85.005c0,13.807-11.193,25-25,25s-25-11.193-25-25s11.193-25,25-25   S339.003,71.198,339.003,85.005z"/>
	<path style="fill:#FFBD61;" d="M89.003,345.005c0,8.284-6.716,15-15,15s-15-6.716-15-15s6.716-15,15-15   S89.003,336.721,89.003,345.005z M184.003,410.005c-8.284,0-15,6.716-15,15s6.716,15,15,15s15-6.716,15-15   S192.287,410.005,184.003,410.005z M124.003,180.005c-8.284,0-15,6.716-15,15s6.716,15,15,15s15-6.716,15-15   S132.287,180.005,124.003,180.005z M294.003,300.005c-8.284,0-15,6.716-15,15s6.716,15,15,15s15-6.716,15-15   S302.287,300.005,294.003,300.005z"/>
	<path style="fill:#D14F1B;" d="M44.011,323.77c0,3.699-2.014,6.921-5,8.651c-2.986-1.73-5-4.952-5-8.651s2.014-6.922,5-8.651   C41.998,316.848,44.011,320.071,44.011,323.77z M15.509,326.491c-0.889,3.335-0.034,7.037,2.582,9.653s6.318,3.47,9.653,2.582   c0.888-3.335,0.034-7.037-2.582-9.653S18.843,325.603,15.509,326.491z M120.947,263.823c3.578,0.939,7.206-0.19,9.637-2.64   c-0.915-3.328-3.52-6.094-7.098-7.033c-3.578-0.939-7.206,0.19-9.637,2.639C114.764,260.117,117.369,262.883,120.947,263.823z    M301.143,202.546c0.889-3.335,0.034-7.037-2.582-9.653c-2.616-2.616-6.318-3.471-9.653-2.582   c-0.888,3.335-0.034,7.037,2.582,9.653C294.106,202.579,297.808,203.434,301.143,202.546z M293.753,369.937   c2.616-2.616,3.47-6.318,2.582-9.653c-3.335-0.888-7.037-0.034-9.653,2.582s-3.47,6.318-2.582,9.653   C287.434,373.407,291.137,372.553,293.753,369.937z M406.739,152.519c0.888-3.335,0.034-7.037-2.582-9.653s-6.318-3.47-9.653-2.582   c-0.888,3.335-0.034,7.037,2.582,9.653S403.404,153.408,406.739,152.519z M120.832,274.139c-3.194,1.866-4.961,5.229-4.948,8.681   c3,1.706,6.798,1.82,9.992-0.046c3.194-1.866,4.961-5.23,4.948-8.681C127.824,272.387,124.026,272.273,120.832,274.139z    M303.864,174.043c-3.699,0-6.921,2.014-8.651,5c1.73,2.986,4.952,5,8.651,5s6.921-2.014,8.651-5   C310.786,176.056,307.564,174.043,303.864,174.043z M403.229,164.945c-1.73-2.986-4.952-5-8.651-5s-6.921,2.014-8.651,5   c1.73,2.986,4.952,5,8.651,5C398.277,169.945,401.5,167.931,403.229,164.945z M296.26,379.945c-3.699,0-6.921,2.014-8.651,5   c1.73,2.986,4.952,5,8.651,5c3.699,0,6.922-2.014,8.651-5C303.182,381.958,299.96,379.945,296.26,379.945z M397.086,179.952   c-2.616,2.616-3.47,6.318-2.582,9.653c3.335,0.889,7.037,0.034,9.653-2.582s3.47-6.318,2.582-9.653   C403.404,176.482,399.702,177.337,397.086,179.952z M128.407,235.115c-1.706,3-1.82,6.798,0.046,9.992   c1.866,3.194,5.23,4.96,8.681,4.948c1.706-3,1.82-6.798-0.046-9.993C135.222,236.869,131.858,235.102,128.407,235.115z    M165.609,467.11c-2.986,1.73-5,4.952-5,8.651s2.014,6.921,5,8.651c2.986-1.73,5-4.952,5-8.651S168.596,468.84,165.609,467.11z    M277.64,196.616c-2.986,1.73-5,4.952-5,8.651s2.014,6.921,5,8.651c2.986-1.73,5-4.952,5-8.651S280.626,198.346,277.64,196.616z    M284.1,397.37c-0.888,3.335-0.034,7.038,2.582,9.653s6.318,3.47,9.653,2.582c0.888-3.335,0.034-7.037-2.582-9.653   S287.434,396.482,284.1,397.37z"/>
	<path style="fill:#0AB174;" d="M369.003,205.005c0,8.284-6.716,15-15,15s-15-6.716-15-15s6.716-15,15-15   S369.003,196.721,369.003,205.005z M364.003,110.005c-8.284,0-15,6.716-15,15s6.716,15,15,15s15-6.716,15-15   S372.287,110.005,364.003,110.005z"/>
</g>















</svg>
