<?xml version="1.0" encoding="iso-8859-1"?>
<!-- Generator: Adobe Illustrator 19.0.0, SVG Export Plug-In . SVG Version: 6.00 Build 0)  -->
<svg xmlns="http://www.w3.org/2000/svg" xmlns:xlink="http://www.w3.org/1999/xlink" version="1.1" id="Capa_1" x="0px" y="0px" viewBox="0 0 501 501" style="enable-background:new 0 0 501 501;" xml:space="preserve" width="512" height="512">
<g>
	<path style="fill:#FFB23C;" d="M490,245c0,135.31-109.69,245-245,245S0,380.31,0,245S109.69,0,245,0S490,109.69,490,245z"/>
	<path style="fill:#B5F3FB;" d="M339,349H49c-5.523,0-10-4.477-10-10V88c0-5.523,4.477-10,10-10h290c5.523,0,10,4.477,10,10v251   C349,344.523,344.523,349,339,349z"/>
	<path style="fill:#DCFBFF;" d="M339,349H78c-5.523,0-10-4.477-10-10V88c0-5.523,4.477-10,10-10h261c5.523,0,10,4.477,10,10v251   C349,344.523,344.523,349,339,349z"/>
	<path style="fill:#81D4AE;" d="M229,183v20c0,2.761-2.239,5-5,5h-60c-2.761,0-5-2.239-5-5v-20c0-2.761,2.239-5,5-5h60   C226.761,178,229,180.239,229,183z M224,228h-60c-2.761,0-5,2.239-5,5v20c0,2.761,2.239,5,5,5h60c2.761,0,5-2.239,5-5v-20   C229,230.239,226.761,228,224,228z M224,278h-60c-2.761,0-5,2.239-5,5v20c0,2.761,2.239,5,5,5h60c2.761,0,5-2.239,5-5v-20   C229,280.239,226.761,278,224,278z M319,128h-60c-2.761,0-5,2.239-5,5v20c0,2.761,2.239,5,5,5h60c2.761,0,5-2.239,5-5v-20   C324,130.239,321.761,128,319,128z"/>
	<path style="fill:#8AE8F5;" d="M134,133v20c0,2.761-2.239,5-5,5H69c-2.761,0-5-2.239-5-5v-20c0-2.761,2.239-5,5-5h60   C131.761,128,134,130.239,134,133z M129,178H69c-2.761,0-5,2.239-5,5v20c0,2.761,2.239,5,5,5h60c2.761,0,5-2.239,5-5v-20   C134,180.239,131.761,178,129,178z M129,228H69c-2.761,0-5,2.239-5,5v20c0,2.761,2.239,5,5,5h60c2.761,0,5-2.239,5-5v-20   C134,230.239,131.761,228,129,228z M129,278H69c-2.761,0-5,2.239-5,5v20c0,2.761,2.239,5,5,5h60c2.761,0,5-2.239,5-5v-20   C134,280.239,131.761,278,129,278z M224,128h-60c-2.761,0-5,2.239-5,5v20c0,2.761,2.239,5,5,5h60c2.761,0,5-2.239,5-5v-20   C229,130.239,226.761,128,224,128z M319,178h-60c-2.761,0-5,2.239-5,5v20c0,2.761,2.239,5,5,5h60c2.761,0,5-2.239,5-5v-20   C324,180.239,321.761,178,319,178z M319,228h-60c-2.761,0-5,2.239-5,5v20c0,2.761,2.239,5,5,5h60c2.761,0,5-2.239,5-5v-20   C324,230.239,321.761,228,319,228z"/>
	<path style="fill:#EF3C54;" d="M349,98H39V59c0-11.046,8.954-20,20-20h270c11.046,0,20,8.954,20,20V98z"/>
	<path style="fill:#F5596E;" d="M349,98H68V59c0-11.046,8.954-20,20-20h241c11.046,0,20,8.954,20,20V98z"/>
	<path style="fill:#0AB174;" d="M182,341.5c0-88.089,71.411-159.5,159.5-159.5S501,253.411,501,341.5S429.589,501,341.5,501   S182,429.589,182,341.5z"/>
	<path style="fill:#FFD69E;" d="M212,341.5c0-71.521,57.979-129.5,129.5-129.5S471,269.979,471,341.5S413.021,471,341.5,471   S212,413.021,212,341.5z"/>
	<path style="fill:#FFE2BD;" d="M471,341.5c0,66.79-50.565,121.763-115.5,128.745C290.565,463.263,240,408.29,240,341.5   s50.565-121.763,115.5-128.745C420.435,219.737,471,274.71,471,341.5z"/>
	<path style="fill:#9FDFC2;" d="M440.968,339H339v-96.968c0.831-0.021,1.664-0.032,2.5-0.032   C395.616,242,439.642,285.203,440.968,339z"/>
	<path style="fill:#027348;" d="M356.5,339h-30V234.352c0-3.344,1.671-6.466,4.453-8.32l9.438-6.292   c0.672-0.448,1.547-0.448,2.219,0l9.438,6.292c2.782,1.855,4.453,4.977,4.453,8.32V339z"/>
	<path style="fill:#0AB174;" d="M329,356.5v-30h104.648c3.344,0,6.466,1.671,8.32,4.453l6.292,9.438   c0.448,0.672,0.448,1.547,0,2.219l-6.292,9.438c-1.855,2.782-4.977,4.453-8.32,4.453H329z"/>
	<path style="fill:#FFC981;" d="M312,341.5c0-16.292,13.208-29.5,29.5-29.5s29.5,13.208,29.5,29.5S357.792,371,341.5,371   S312,357.792,312,341.5z M249.5,361c10.77,0,19.5-8.73,19.5-19.5s-8.73-19.5-19.5-19.5c-10.77,0-19.5,8.73-19.5,19.5   S238.73,361,249.5,361z M341.5,459c10.77,0,19.5-8.73,19.5-19.5s-8.73-19.5-19.5-19.5s-19.5,8.73-19.5,19.5S330.73,459,341.5,459z"/>
</g>















</svg>
