<?xml version="1.0" encoding="iso-8859-1"?>
<!-- Generator: Adobe Illustrator 19.0.0, SVG Export Plug-In . SVG Version: 6.00 Build 0)  -->
<svg xmlns="http://www.w3.org/2000/svg" xmlns:xlink="http://www.w3.org/1999/xlink" version="1.1" id="Capa_1" x="0px" y="0px" viewBox="0 0 501 501" style="enable-background:new 0 0 501 501;" xml:space="preserve" width="512" height="512">
<g>
	<path style="fill:#30DAEC;" d="M0,250.5C0,151.597,58.604,66.383,142.98,27.686C164.212,17.949,270.616,6.501,283,8.429   C400.264,26.689,490,128.115,490,250.5c0,69.757-29.153,132.705-75.94,177.324H75.94C29.153,383.205,0,320.257,0,250.5z"/>
	<path style="fill:#8AE8F5;" d="M84,134.5c8.284,0,15,6.716,15,15s-6.716,15-15,15H64c-8.284,0-15-6.716-15-15s6.716-15,15-15H84z    M124,194.5H44c-8.284,0-15,6.716-15,15s6.716,15,15,15h80c8.284,0,15-6.716,15-15S132.284,194.5,124,194.5z M369.986,222.474h-80   c-8.284,0-15,6.716-15,15s6.716,15,15,15h80c8.284,0,15-6.716,15-15S378.27,222.474,369.986,222.474z M109,99.5   c0-8.284-6.716-15-15-15H64.826c-8.625,9.357-16.532,19.384-23.631,30H94C102.284,114.5,109,107.784,109,99.5z M124,354.5H23.124   c4.894,10.422,10.499,20.442,16.755,30H124c8.284,0,15-6.716,15-15S132.284,354.5,124,354.5z M483.563,194.5H414   c-8.284,0-15,6.716-15,15s6.716,15,15,15h74.626C487.55,214.3,485.852,204.287,483.563,194.5z M439,149.5c0-8.284-6.716-15-15-15   h-15c-5.523,0-10-4.477-10-10c0-5.523,4.477-10,10-10h39.804c-7.098-10.616-15.005-20.643-23.631-30H324c-8.284,0-15,6.716-15,15   s6.716,15,15,15h45c5.523,0,10,4.477,10,10c0,5.523-4.477,10-10,10H254c-8.284,0-15,6.716-15,15s6.716,15,15,15h170   C432.284,164.5,439,157.784,439,149.5z"/>
	<path style="fill:#FF9978;" d="M142.986,27.697C174.046,13.452,208.593,5.5,245,5.5c12.926,0,25.615,1.008,38,2.937V244.5H165.414   L142.986,27.697z"/>
	<path style="fill:#FFAE93;" d="M245,5.5c12.926,0,25.615,1.008,38,2.937V123.5l-44,21l0,0   c-35.228-12.847-60.035-44.672-63.894-81.97l-4.7-45.435C193.928,9.58,218.985,5.5,245,5.5z"/>
	<path style="fill:#B5F3FB;" d="M139.952,51.458c-0.466-3.406,2.564-6.255,5.934-5.581l138.94,27.788   c2.405,0.481,4.107,2.636,4.016,5.087L283,237.019l-120.559-21.258L139.952,51.458z"/>
	<path style="fill:#DCFBFF;" d="M288.843,78.753l-5.402,146.332l-86.905-15.324L174.899,51.68l109.928,21.986   C287.232,74.146,288.933,76.301,288.843,78.753z"/>
	<path style="fill:#029A64;" d="M427.003,414.5c-44.841,49.732-109.768,81-182.003,81s-137.162-31.268-182.003-81H427.003z"/>
	<path style="fill:#EF3C54;" d="M497.066,359.231L497.066,359.231c-3.94,15.955-18.95,26.635-35.315,25.127l-252.061-23.22   L50.972,297.823L138.176,105.5c4.103-9.048,14.225-13.713,23.769-10.954l101.815,29.433c-1.339-9.831,4.791-19.358,14.627-21.994   c5.335-1.429,10.818,1.736,12.247,7.071l21.833,81.483c0.089,0.333,0.16,0.666,0.214,0.998   c6.619,20.965,19.099,39.602,35.983,53.695v0c15.127,12.626,33.242,21.156,52.611,24.773l43.583,8.139   c28.276,5.28,49.924,28.188,53.598,56.717v0C499.505,343,499.033,351.264,497.066,359.231z"/>
	<path style="fill:#D43147;" d="M497.538,357.11c-0.151,0.708-0.298,1.417-0.472,2.121c-3.94,15.955-18.95,26.635-35.315,25.127   l-252.061-23.22L50.972,297.823L138.176,105.5c4.103-9.048,14.225-13.713,23.769-10.954l11.494,3.323l-31.68,69.868   c-6.457,14.24-8.742,29.245-7.423,43.697c3.335-1.371,7.166-1.566,10.822-0.236c7.785,2.833,11.799,11.441,8.965,19.226   c-1.97,5.412-6.732,8.994-12.067,9.727c9.341,20.184,26.389,36.861,49.103,45.138l129.906,47.339   c6.098,2.222,12.425,3.754,18.863,4.567L497.538,357.11z M181.881,256.49c7.785,2.833,16.393-1.18,19.226-8.965   s-1.18-16.392-8.965-19.226c-7.785-2.833-16.392,1.18-19.226,8.965C170.083,245.049,174.096,253.657,181.881,256.49z    M228.866,273.591c7.785,2.833,16.392-1.18,19.226-8.965s-1.18-16.392-8.965-19.226c-7.785-2.833-16.392,1.181-19.226,8.965   C217.067,262.15,221.081,270.758,228.866,273.591z"/>
	<path style="fill:#FFD69E;" d="M467.878,444.5h-86.079c-42.703,0-85.126-6.884-125.638-20.388L58.879,358.351   C41.035,352.403,29,335.705,29,316.897v0c0-30.933,31.259-52.073,59.967-40.554l170.029,68.217   c38.646,15.505,79.489,24.838,121.034,27.658l90.09,6.115c17.382,1.18,30.879,15.624,30.879,33.046v0   C501,429.671,486.171,444.5,467.878,444.5z"/>
	<path style="fill:#FFE2BD;" d="M470.121,378.332c12.135,0.824,22.376,8.113,27.453,18.367c4.006,8.092-1.915,17.761-10.944,17.801   c-0.052,0-0.104,0-0.156,0h-89.726c-44.512,0-88.734-7.176-130.962-21.252L60.145,324.7c-0.126-0.042-0.253-0.085-0.378-0.128   c-24.205-8.303-23.015-43.271,1.693-49.927c8.672-2.336,18.222-2.029,27.508,1.697l170.03,68.217   c38.646,15.505,79.489,24.838,121.033,27.658L470.121,378.332z"/>
	<path style="fill:#FFC3B0;" d="M407.588,271.184l-1.241,14.187c-0.481,5.502-5.332,9.572-10.833,9.09l0,0   c-5.502-0.481-9.572-5.332-9.09-10.833l1.485-16.97c3.381,0.911,6.772,1.587,10.28,2.342   C399.181,269.214,407.588,271.184,407.588,271.184z M343.809,271.909c-1.429,5.335,1.736,10.818,7.071,12.248   s10.818-1.736,12.248-7.071l5.02-18.733c-3.212-1.978-5.559-3.718-8.272-5.478c-3.186-2.066-6.423-4.021-9.326-6.121   L343.809,271.909z M311.952,188.616l-23.499,6.222c-5.335,1.429-8.5,6.913-7.071,12.247c1.429,5.335,6.913,8.5,12.247,7.071   l25.375-6.799c-1.465-3.001-2.585-6.147-3.755-9.274C314.37,195.732,311.952,188.616,311.952,188.616z M309.502,237.429   c-3.905,3.905-3.905,10.237,0,14.142s10.237,3.905,14.142,0l15.385-15.385c-2.124-2.749-4.265-5.114-6.405-7.811   c-2.034-2.563-4.125-5.344-6.142-7.927L309.502,237.429z M429.542,275.254L429,275.183v12.619c0,5.326,4.019,9.977,9.335,10.321   c5.824,0.377,10.665-4.235,10.665-9.978v-9.076c-0.057-0.014-0.124-0.032-0.2-0.051   C442.462,277.375,436.033,276.109,429.542,275.254z"/>
	<path style="fill:#029A64;" d="M169,454.5l-70.711-25.355l-16.042-37.129c-1.108-2.565,1.584-5.119,4.087-3.877l41.304,20.489   l7.165-38.05c0.572-3.036,4.805-3.33,5.791-0.402L169,454.5z"/>
</g>















</svg>
