<?xml version="1.0" encoding="iso-8859-1"?>
<!-- Generator: Adobe Illustrator 19.0.0, SVG Export Plug-In . SVG Version: 6.00 Build 0)  -->
<svg xmlns="http://www.w3.org/2000/svg" xmlns:xlink="http://www.w3.org/1999/xlink" version="1.1" id="Capa_1" x="0px" y="0px" viewBox="0 0 501 501" style="enable-background:new 0 0 501 501;" xml:space="preserve" width="512" height="512">
<g>
	<path style="fill:#FFBD61;" d="M14.695,257.912c-4.832,0.813-9.232-2.926-9.125-7.824c0.001-0.03,0.001-0.06,0.002-0.088   C8.758,117.462,117.196,11,250.5,11c135.31,0,245,109.69,245,245c0,8.707-0.457,17.307-1.347,25.779   c-1.544,14.707-12.879,26.498-27.465,28.929l-65.759,10.96c-58.497,9.75-118.573,1.85-172.562-22.69l-40.676-18.489   C133.035,255.645,72.762,248.139,14.695,257.912z"/>
	<path style="fill:#FFD69E;" d="M254.5,210c0,55.228-44.772,100-100,100s-100-44.772-100-100s44.772-100,100-100   S254.5,154.772,254.5,210z"/>
	<path style="fill:#FFE2BD;" d="M254.5,210c0,48.615-34.693,89.121-80.67,98.126c-45.977-9.006-80.67-49.511-80.67-98.126   c0-48.615,34.693-89.121,80.67-98.126C219.807,120.879,254.5,161.385,254.5,210z"/>
	<path style="fill:#5CC899;" d="M494.476,278.337C483.19,403.176,378.278,501,250.5,501c-135.31,0-245-109.69-245-245   c0-2.624,0.056-5.235,0.138-7.839C67.545,228.925,134.787,232.858,194.5,260l36.23,16.468   c48.088,21.858,101.598,28.894,153.702,20.21L494.476,278.337z"/>
	<path style="fill:#0AB174;" d="M82.938,326.499c6.409-28.36-2.963-67.731-24.069-89.071c12.141-1.177,24.343-1.513,36.519-1.016   c23.713,25.717,34.843,62.279,26.566,98.904c-9.724,43.027,17.37,85.943,60.397,95.667L173.534,470   C108.993,455.414,68.352,391.04,82.938,326.499z"/>
	<path style="fill:#018655;" d="M96.56,446.586L200.454,60.154c3.706-13.785,23.265-13.785,26.971,0l113.851,423.468   C313.201,494.828,282.573,501,250.5,501C192.18,501,138.63,480.609,96.56,446.586z"/>
	<path style="fill:#027348;" d="M235.382,486.286c17.502,5.443,35.68,9.35,54.377,11.566C276.976,499.913,263.866,501,250.5,501   c-58.32,0-111.87-20.391-153.94-54.414L200.454,60.154c3.706-13.785,23.265-13.785,26.971,0l3.567,13.267L157.84,345.507   C141.672,405.643,175.919,467.795,235.382,486.286z"/>
	<path style="fill:#0AB174;" d="M448.168,324.804c0,62.108-50.78,112.356-113.087,111.489   c-61.238-0.852-110.701-51.733-109.903-112.971c0.302-23.174,7.675-44.641,20.059-62.345c9.711-13.883,12.145-31.736,5.86-47.47   c-4.217-10.557-6.537-22.076-6.537-34.138c0-21.95,7.678-42.107,20.495-57.931c9.896-12.218,14.059-28.28,10.358-43.561   c-1.154-4.763-1.766-9.737-1.766-14.855c0-35.136,28.754-63.557,64.015-63.014c33.445,0.515,60.942,27.549,61.996,60.982   c0.183,5.794-0.419,11.417-1.706,16.773c-3.697,15.389,0.538,31.526,10.47,43.849c12.733,15.798,20.355,35.888,20.355,57.758   c0,12.062-2.32,23.581-6.537,34.138c-6.256,15.662-3.959,33.49,5.735,47.292C440.698,278.914,448.168,300.986,448.168,324.804z"/>
	<path style="fill:#24BD87;" d="M427.975,260.799c12.723,18.115,20.193,40.187,20.193,64.005c0,55.377-40.37,101.322-93.286,110.017   c-53.361-8.81-94.098-55.881-93.373-111.5c0.302-23.174,7.675-44.641,20.059-62.345c9.711-13.883,12.145-31.736,5.86-47.469   c-4.217-10.557-6.537-22.076-6.537-34.138c0-21.95,7.678-42.107,20.495-57.931c9.896-12.218,14.059-28.28,10.358-43.561   c-1.154-4.763-1.766-9.737-1.766-14.855c0-28.465,18.873-52.517,44.787-60.338c25.252,7.639,44.025,30.799,44.892,58.305   c0.183,5.794-0.419,11.417-1.706,16.773c-3.697,15.389,0.538,31.526,10.47,43.849c12.733,15.798,20.355,35.888,20.355,57.758   c0,12.062-2.32,23.581-6.537,34.138C415.984,229.169,418.281,246.998,427.975,260.799z"/>
	<path style="fill:#9FDFC2;" d="M394.5,300c4.686,4.686,4.686,12.284,0,16.97l-43,43v119.306c-7.789,3.529-15.801,6.651-24,9.363   v-88.669l-48.664-48.664c-4.686-4.686-4.686-12.284,0-16.971s12.284-4.686,16.971,0l31.693,31.693V256.456l-48.664-48.664   c-4.686-4.686-4.686-12.284,0-16.97s12.284-4.686,16.971,0l31.693,31.693V92c0-6.627,5.373-12,12-12s12,5.373,12,12v67.544   l17.787-17.787c4.686-4.686,12.284-4.686,16.971,0h0c4.686,4.686,4.686,12.284,0,16.971L351.5,193.485v132.544L377.529,300   C382.216,295.314,389.814,295.314,394.5,300z"/>
	<path style="fill:#0AB174;" d="M294.5,154.142L280.358,140c-3.905-3.905-3.905-10.237,0-14.142l0,0   c3.905-3.905,10.237-3.905,14.142,0L308.642,140c3.905,3.905,3.905,10.237,0,14.142l0,0   C304.737,158.047,298.405,158.047,294.5,154.142z M400.107,189.393L400.107,189.393c-3.905-3.905-10.237-3.905-14.142,0   l-7.071,7.071c-3.905,3.905-3.905,10.237,0,14.142v0c3.905,3.905,10.237,3.905,14.142,0l7.071-7.071   C404.012,199.63,404.012,193.299,400.107,189.393z M420.107,339.393L420.107,339.393c-3.905-3.905-10.237-3.905-14.142,0   l-7.071,7.071c-3.905,3.905-3.905,10.237,0,14.142l0,0c3.905,3.905,10.237,3.905,14.142,0l7.071-7.071   C424.012,349.63,424.012,343.299,420.107,339.393z M374.5,40L374.5,40c-3.905-3.905-10.237-3.905-14.142,0l-10,10   c-3.905,3.905-3.905,10.237,0,14.142l0,0c3.905,3.905,10.237,3.905,14.142,0l10-10C378.405,50.237,378.405,43.905,374.5,40z    M288.642,304.142L288.642,304.142c3.905-3.905,3.905-10.237,0-14.142L274.5,275.858c-3.905-3.905-10.237-3.905-14.142,0l0,0   c-3.905,3.905-3.905,10.237,0,14.142l14.142,14.142C278.405,308.047,284.737,308.047,288.642,304.142z"/>
</g>















</svg>
