<?xml version="1.0" encoding="UTF-8" standalone="no"?>
<svg
   xmlns:dc="http://purl.org/dc/elements/1.1/"
   xmlns:cc="http://creativecommons.org/ns#"
   xmlns:rdf="http://www.w3.org/1999/02/22-rdf-syntax-ns#"
   xmlns:svg="http://www.w3.org/2000/svg"
   xmlns="http://www.w3.org/2000/svg"
   version="1.1"
   id="Layer_1"
   x="0px"
   y="0px"
   viewBox="0 0 440.001 440.001"
   style="enable-background:new 0 0 440.001 440.001;"
   xml:space="preserve">
<path
   id="path2"
   d="m 366.502,332.011 c -1.529,-12.228 -9.943,-22.492 -21.634,-26.389 l -39.047,-13.016 c -5.362,-1.788 -11.244,-0.65 -15.379,2.874 L 278.94,291.646 C 272.406,289.468 268,283.354 268,276.467 v -25.802 l 34.461,-14.359 C 320.349,228.855 332,211.378 332,192 v -8 c 13.255,0 24,-10.745 24,-24 0,-10.313 -6.507,-19.105 -15.639,-22.5 0,0 5.24439,-49.484598 -6.114,-69.949 C 319.29165,40.605974 289.57643,21.761081 260.346,12 234.83388,3.4805954 205.16719,3.4807885 179.655,12 150.42443,21.76088 120.70858,40.605029 105.753,67.55 94.394451,88.014316 99.639,137.499 99.639,137.499 90.507,140.895 84,149.687 84,160 c 0,13.255 10.745,24 24,24 v 8 c 0,19.377 11.651,36.854 29.538,44.308 L 172,250.667 v 25.801 c 0,6.887 -4.407,13.001 -10.94,15.179 l -11.502,3.834 c -4.135,-3.524 -10.017,-4.662 -15.379,-2.874 l -39.047,13.016 c -11.691,3.897 -20.105,14.161 -21.634,26.389 2.587403,26.97471 3.170374,46.23382 2.502,73.368 V 424 c 0,8.836 7.163,16 16,16 h 256 c 8.837,0 16,-7.164 16,-16 v -18.621 c -1.30592,-21.0496 5.52147,-49.21307 2.502,-73.368 z"
   style="fill:#c8c8c8;fill-opacity:1" /><path
   style="fill:#9a9a9a;fill-opacity:1"
   d="m 308,440.001 v -40 h 67 l -8.499,-67.989 c -1.529,-12.228 -9.943,-22.492 -21.634,-26.389 L 305.82,292.607 c -6.8,-2.267 -14.45,0.154 -18.291,6.206 -14.18,22.344 -39.105,37.187 -67.528,37.187 -28.423,0 -53.349,-14.844 -67.53,-37.188 -3.841,-6.052 -11.491,-8.473 -18.291,-6.206 l -39.047,13.016 c -11.691,3.897 -20.105,14.161 -21.634,26.389 L 65.89,392.883 132.001,400 v 40 h 176 v 10e-4 z"
   id="path8" /><path
   style="fill:#c8c8c8;fill-opacity:1"
   d="m 268,250 h -96 v 26.468 c 0,5.759 -3.186,10.831 -8.017,13.659 C 231.077,301.871 268,250 268,250 Z"
   id="path12" /><path
   id="path16"
   d="M 332,136 V 104 C 332,81.909 314.091,64 292,64 H 148 c -22.091,0 -40,17.909 -40,40 v 32 c -13.255,0 -24,10.745 -24,24 0,13.255 10.745,24 24,24 v 8 c 0,19.377 11.651,36.854 29.538,44.308 l 51.691,21.538 C 198.98,261.909 209.438,264 220,264 v 0 c 10.562,0 21.019,-2.092 30.769,-6.154 l 51.694,-21.539 C 320.349,228.855 332,211.378 332,192 v -8 c 13.255,0 24,-10.745 24,-24 0,-13.255 -10.745,-24 -24,-24 z"
   style="fill:#c8c8c8;fill-opacity:1" /><path
   style="fill:#414141;fill-opacity:1"
   d="m 164.001,154 v 0 c -4.4,0 -8,-3.6 -8,-8 v -8 c 0,-4.4 3.6,-8 8,-8 v 0 c 4.4,0 8,3.6 8,8 v 8 c 0,4.4 -3.601,8 -8,8 z"
   id="path18" /><path
   style="fill:#424242;fill-opacity:1"
   d="m 276,154 v 0 c -4.4,0 -8,-3.6 -8,-8 v -8 c 0,-4.4 3.6,-8 8,-8 v 0 c 4.4,0 8,3.6 8,8 v 8 c 0,4.4 -3.6,8 -8,8 z"
   id="path22" /><path
   id="path26"
   d="m 220.001,218.219 c -14.223,0 -27.527,-3.5 -36.5,-9.605 -3.652,-2.484 -4.602,-7.461 -2.113,-11.113 2.48,-3.648 7.461,-4.598 11.113,-2.113 6.289,4.277 16.57,6.832 27.5,6.832 10.93,0 21.211,-2.555 27.5,-6.832 3.66,-2.492 8.629,-1.539 11.113,2.113 2.488,3.652 1.539,8.629 -2.113,11.113 -8.972,6.105 -22.277,9.605 -36.5,9.605 z"
   style="fill:#979797;fill-opacity:1" /><path
   id="path48"
   d="m 149.997,219.723 c -6.482,-6.95 -9.995,-16.121 -9.995,-25.625 V 64.806 c -18.257,3.707 -32,19.843 -32,39.194 v 32 c -13.255,0 -24,10.745 -24,24 0,13.255 10.745,24 24,24 v 8 c 0,19.378 11.651,36.855 29.538,44.308 l 51.69,21.538 c 2.53,1.054 5.112,1.962 7.727,2.749 -22.846,-16.712 -38.051,-31.321 -46.96,-40.872 z"
   style="fill:#c8c8c8;fill-opacity:1" />
</svg>
