<?xml version="1.0" encoding="UTF-8" standalone="no"?>
<svg
   xmlns:dc="http://purl.org/dc/elements/1.1/"
   xmlns:cc="http://creativecommons.org/ns#"
   xmlns:rdf="http://www.w3.org/1999/02/22-rdf-syntax-ns#"
   xmlns:svg="http://www.w3.org/2000/svg"
   xmlns="http://www.w3.org/2000/svg"
   xml:space="preserve"
   style="enable-background:new 0 0 440.001 440.001;"
   viewBox="0 0 440.001 440.001"
   y="0px"
   x="0px"
   id="Layer_1"
   version="1.1"><metadata
   id="metadata87"><rdf:RDF><cc:Work
       rdf:about=""><dc:format>image/svg+xml</dc:format><dc:type
         rdf:resource="http://purl.org/dc/dcmitype/StillImage" /><dc:title></dc:title></cc:Work></rdf:RDF></metadata><defs
   id="defs85" />
<g
   id="g50">
	<path
   id="path2"
   d="m 366.502,332.011 c -1.529,-12.228 -9.943,-22.492 -21.634,-26.389 l -39.047,-13.016 c -5.362,-1.788 -11.244,-0.65 -15.379,2.874 L 278.94,291.646 C 272.406,289.468 268,283.354 268,276.467 v -25.802 l 34.461,-14.359 C 320.349,228.855 332,211.378 332,192 v -8 c 13.255,0 24,-10.745 24,-24 0,-10.313 -6.507,-19.105 -15.639,-22.5 0,0 5.24439,-49.484598 -6.114,-69.949 C 319.29165,40.605974 289.57643,21.761081 260.346,12 234.83388,3.4805954 205.16719,3.4807885 179.655,12 150.42443,21.76088 120.70858,40.605029 105.753,67.55 94.394451,88.014316 99.639,137.499 99.639,137.499 90.507,140.895 84,149.687 84,160 c 0,13.255 10.745,24 24,24 v 8 c 0,19.377 11.651,36.854 29.538,44.308 L 172,250.667 v 25.801 c 0,6.887 -4.407,13.001 -10.94,15.179 l -11.502,3.834 c -4.135,-3.524 -10.017,-4.662 -15.379,-2.874 l -39.047,13.016 c -11.691,3.897 -20.105,14.161 -21.634,26.389 2.587403,26.97471 3.170374,46.23382 2.502,73.368 V 424 c 0,8.836 7.163,16 16,16 h 256 c 8.837,0 16,-7.164 16,-16 v -18.621 c -1.30592,-21.0496 5.52147,-49.21307 2.502,-73.368 z"
   style="fill:#c8c8c8;fill-opacity:1" />
	
	<g
   id="g10">
		<path
   id="path8"
   d="M308,440.001v-40h67l-8.499-67.989c-1.529-12.228-9.943-22.492-21.634-26.389l-39.047-13.016    c-6.8-2.267-14.45,0.154-18.291,6.206C273.349,321.157,248.424,336,220.001,336s-53.349-14.844-67.53-37.188    c-3.841-6.052-11.491-8.473-18.291-6.206l-39.047,13.016c-11.691,3.897-20.105,14.161-21.634,26.389l-7.609,60.872L132.001,400v40    h176V440.001z"
   style="fill:#9a9a9a;fill-opacity:1" />
	</g>
	<g
   id="g14">
		<path
   id="path12"
   d="M268,250h-96v26.468c0,5.759-3.186,10.831-8.017,13.659C231.077,301.871,268,250,268,250z"
   style="fill:#c8c8c8;fill-opacity:1" />
	</g>
	<path
   id="path16"
   d="M332,136v-32c0-22.091-17.909-40-40-40h-144c-22.091,0-40,17.909-40,40v32   c-13.255,0-24,10.745-24,24s10.745,24,24,24v8c0,19.377,11.651,36.854,29.538,44.308l51.691,21.538   C198.98,261.909,209.438,264,220,264l0,0c10.562,0,21.019-2.092,30.769-6.154l51.694-21.539C320.349,228.855,332,211.378,332,192   v-8c13.255,0,24-10.745,24-24S345.255,136,332,136z"
   style="fill:#c8c8c8;fill-opacity:1" />
	<g
   transform="translate(0,-14)"
   id="g20">
		<path
   id="path18"
   d="m 164.001,168 v 0 c -4.4,0 -8,-3.6 -8,-8 v -8 c 0,-4.4 3.6,-8 8,-8 v 0 c 4.4,0 8,3.6 8,8 v 8 c 0,4.4 -3.601,8 -8,8 z"
   style="fill:#414141;fill-opacity:1" />
	</g>
	<g
   transform="translate(0,-14)"
   id="g24">
		<path
   id="path22"
   d="m 276,168 v 0 c -4.4,0 -8,-3.6 -8,-8 v -8 c 0,-4.4 3.6,-8 8,-8 v 0 c 4.4,0 8,3.6 8,8 v 8 c 0,4.4 -3.6,8 -8,8 z"
   style="fill:#424242;fill-opacity:1" />
	</g>
	<g
   transform="translate(0,-6)"
   id="g30">
		<g
   id="g28">
			<path
   id="path26"
   d="m 220.001,224.219 c -14.223,0 -27.527,-3.5 -36.5,-9.605 -3.652,-2.484 -4.602,-7.461 -2.113,-11.113 2.48,-3.648 7.461,-4.598 11.113,-2.113 6.289,4.277 16.57,6.832 27.5,6.832 10.93,0 21.211,-2.555 27.5,-6.832 3.66,-2.492 8.629,-1.539 11.113,2.113 2.488,3.652 1.539,8.629 -2.113,11.113 -8.972,6.105 -22.277,9.605 -36.5,9.605 z"
   style="fill:#979797;fill-opacity:1" />
		</g>
	</g>

	<path
   id="path48"
   d="M149.997,219.723c-6.482-6.95-9.995-16.121-9.995-25.625V64.806c-18.257,3.707-32,19.843-32,39.194   v32c-13.255,0-24,10.745-24,24s10.745,24,24,24v8c0,19.378,11.651,36.855,29.538,44.308l51.69,21.538   c2.53,1.054,5.112,1.962,7.727,2.749C174.111,243.883,158.906,229.274,149.997,219.723z"
   style="fill:#c8c8c8;fill-opacity:1" />
</g>
</svg>