<?xml version="1.0" encoding="UTF-8" standalone="no"?>
<svg
   xmlns:dc="http://purl.org/dc/elements/1.1/"
   xmlns:cc="http://creativecommons.org/ns#"
   xmlns:rdf="http://www.w3.org/1999/02/22-rdf-syntax-ns#"
   xmlns:svg="http://www.w3.org/2000/svg"
   xmlns="http://www.w3.org/2000/svg"
   height="256"
   width="512"
   xml:space="preserve"
   viewBox="0 0 512 256"
   y="0px"
   x="0px"
   id="Capa_1"
   version="1.1"><metadata
   id="metadata53"><rdf:RDF><cc:Work
       rdf:about=""><dc:format>image/svg+xml</dc:format><dc:type
         rdf:resource="http://purl.org/dc/dcmitype/StillImage" /><dc:title></dc:title></cc:Work></rdf:RDF></metadata><defs
   id="defs51" />
<path
   id="polygon4"
   d="M 2.3e-6,80.902969 32.962894,136.16484 2.3e-6,191.42672 c 170.6666677,0 341.3333277,0 511.9999977,0 L 479.03711,136.16484 512,80.902969 c -170.66667,0 -341.33333,0 -511.9999977,0 z"
   style="fill:#6d3e1e;fill-opacity:1;stroke-width:0.80203372" />






<path
   id="path2"
   d="M 351.65954,14.044133 V 145.50344 c 0,53.27333 -42.82485,96.45336 -95.66,96.45336 -52.83515,0 -95.66002,-43.18003 -95.66002,-96.45336 V 14.044133 Z"
   style="fill:#88fffc;stroke-width:0.93235493;fill-opacity:1" /><path
   id="path8"
   d="M 351.65954,14.044133 V 145.50344 c 0,53.27333 -42.82485,96.45336 -95.66,96.45336 V 14.044133 Z"
   style="fill:#41f5ff;stroke-width:0.93235493;fill-opacity:1" /><polygon
   transform="matrix(0.92851258,0,0,0.93621313,18.301242,-111.67056)"
   id="polygon10"
   points="207.527,233.464 241.019,228.604 256,198.252 270.98,228.604 304.472,233.464 280.231,257.085 285.951,290.447 256,274.696 226.048,290.447 231.768,257.085 "
   style="fill:#2df8ff;fill-opacity:1" /><path
   id="path12"
   d="M 146.41184,2.617056e-8 V 145.50344 c 0,60.93155 49.15731,110.49655 109.5877,110.49655 60.43038,0 109.58769,-49.565 109.58769,-110.49655 V 2.617056e-8 c 9.3e-4,0 -219.17539,0 -219.17539,0 z M 337.73093,145.50344 c 0,45.43629 -36.66882,82.40922 -81.73139,82.40922 -45.06258,0 -81.7314,-36.97293 -81.7314,-82.40922 V 28.087331 h 163.46279 z"
   style="fill:#2df8ff;stroke-width:0.93235493;fill-opacity:1" /><polygon
   transform="matrix(0.92851258,0,0,0.93621313,18.301242,-111.67056)"
   id="polygon14"
   points="270.98,228.604 304.472,233.464 280.231,257.085 285.951,290.447 256,274.696 256,198.252 "
   style="fill:#00e7fd;fill-opacity:1" /><path
   id="path16"
   d="M 365.58816,2.617056e-8 V 145.50344 c 0,60.93155 -49.15731,110.49655 -109.5877,110.49655 v -28.08733 c 45.06258,0 81.7314,-36.97293 81.7314,-82.40922 V 28.087331 h -81.7314 V 2.617056e-8 c 0,0 109.5877,0 109.5877,0 z"
   style="fill:#00e7fd;stroke-width:0.93235493;fill-opacity:1" />
<g
   transform="translate(0,-256)"
   id="g18">
</g>
<g
   transform="translate(0,-256)"
   id="g20">
</g>
<g
   transform="translate(0,-256)"
   id="g22">
</g>
<g
   transform="translate(0,-256)"
   id="g24">
</g>
<g
   transform="translate(0,-256)"
   id="g26">
</g>
<g
   transform="translate(0,-256)"
   id="g28">
</g>
<g
   transform="translate(0,-256)"
   id="g30">
</g>
<g
   transform="translate(0,-256)"
   id="g32">
</g>
<g
   transform="translate(0,-256)"
   id="g34">
</g>
<g
   transform="translate(0,-256)"
   id="g36">
</g>
<g
   transform="translate(0,-256)"
   id="g38">
</g>
<g
   transform="translate(0,-256)"
   id="g40">
</g>
<g
   transform="translate(0,-256)"
   id="g42">
</g>
<g
   transform="translate(0,-256)"
   id="g44">
</g>
<g
   transform="translate(0,-256)"
   id="g46">
</g>
</svg>